<svg id="Capa_1" data-name="Capa 1" xmlns="http://www.w3.org/2000/svg" viewBox="0 0 400 400"><defs><style>.cls-1{fill:#ece7ca;}.cls-2{fill:#83a84d;}.cls-3{fill:#3e2872;}</style></defs><title>LogoMeatStore</title><path class="cls-1" d="M37.63,0H362.37A37.63,37.63,0,0,1,400,37.63V200A200,200,0,0,1,200,400h0A200,200,0,0,1,0,200V37.63A37.63,37.63,0,0,1,37.63,0Z"/><path class="cls-2" d="M160.15,387.7a11,11,0,0,0-1.06-1.3c-8.62-7.86-15.75-17-22.16-26.66a43.4,43.4,0,0,1-7-18.47c-0.89-6.85-2.13-13.67-2.87-20.54-0.57-5.37-1.13-10.78-.34-16.21a24.14,24.14,0,0,1,1.62-5.93,2.35,2.35,0,0,1,2.85-1.6c4.72,0.66,9.57.77,14.16,1.94,8.88,2.26,17.57,5.12,25.12,10.68,4.44,3.26,9,6.36,13.38,9.71A66.77,66.77,0,0,1,199,336.08c5.12,7.83,10,15.82,14.35,24.08,5.18,9.79,8.48,20.14,8.77,31.31,0,0.65,0,1.31,0,2a3.4,3.4,0,0,1-2.71,3.47,10.45,10.45,0,0,1-1.35.36c-6.86.89-13.58,2.77-20.51,3.09-9.17.43-18.12-.42-26.34-5.09a46,46,0,0,1-4.43-2.95,9.76,9.76,0,0,0-3.1-1.87Z" transform="translate(-25.17 -25.61)"/><path class="cls-2" d="M322.12,308.31a7.19,7.19,0,0,1,4.28.59c1.75,1.06,2.3,3.32,2.5,5.35,3,29.54-13.19,49.52-37,62.47-9.88,5.37-20.48,7.19-31.6,7.1-3.57,0-21.18,2.89-23.23,1.12-1.46-1.27-1.22-3.56-.8-5.45C247.17,330.57,273.42,312,322.12,308.31Z" transform="translate(-25.17 -25.61)"/><path class="cls-2" d="M197.15,260.23c5.13,1.84,9.65,5.07,13.76,8.64,8.4,7.28,15.52,16.32,19.23,26.8,4.62,13,4.79,28.66,1.52,42C200.73,329.92,187,288.16,197.15,260.23Z" transform="translate(-25.17 -25.61)"/><path class="cls-3" d="M56,198.31a29.35,29.35,0,0,1-9.66-8.26,20.74,20.74,0,0,1,.31-24,25.47,25.47,0,0,1,11-8.06,42.22,42.22,0,0,1,16-2.85,37.78,37.78,0,0,1,15.86,3.16,24.81,24.81,0,0,1,10.71,8.93,23.68,23.68,0,0,1,3.8,13.33H85.7a10.36,10.36,0,0,0-3.18-8q-3.18-3-9.33-3-5.92,0-9.1,2.45a7.54,7.54,0,0,0-3.18,6.23q0,3.61,3.83,6.17t11.83,5q13.81,4.28,20.6,10.65A21.34,21.34,0,0,1,104,216.48a20.82,20.82,0,0,1-3.69,12.4,22.84,22.84,0,0,1-10.45,7.89,42.65,42.65,0,0,1-15.89,2.7,45,45,0,0,1-16.43-3A28.6,28.6,0,0,1,45,227.3q-4.82-6.2-4.82-15.33H58.48q0,7,3.94,10t11.5,3q5.8,0,8.76-2.37a7.45,7.45,0,0,0,3-6.09,8.85,8.85,0,0,0-1.18-4.73A11.59,11.59,0,0,0,80,208.17a62.45,62.45,0,0,0-9.66-3.86A83.28,83.28,0,0,1,56,198.31Z" transform="translate(-25.17 -25.61)"/><path class="cls-3" d="M181.82,171.06H157v67.29H138.65V171.06H114.2V156.3h67.62v14.76Z" transform="translate(-25.17 -25.61)"/><path class="cls-3" d="M256.16,220.54a33.08,33.08,0,0,1-12.48,14,37,37,0,0,1-36.83,0,33,33,0,0,1-12.51-14q-4.48-9.13-4.48-21.47v-3.44q0-12.34,4.45-21.5a32.86,32.86,0,0,1,12.45-14.06,37.08,37.08,0,0,1,36.86,0,32.93,32.93,0,0,1,12.54,14.06q4.48,9.16,4.48,21.5v3.44Q260.64,211.41,256.16,220.54Zm-18.46-43.81a14.21,14.21,0,0,0-12.51-6.51q-8.23,0-12.54,6.48t-4.31,18.82v3.55q0,12.29,4.4,18.85a14.23,14.23,0,0,0,12.57,6.57,14,14,0,0,0,12.43-6.59q4.37-6.59,4.37-18.82v-3.55Q242.1,183.24,237.71,176.73Z" transform="translate(-25.17 -25.61)"/><path class="cls-3" d="M340.93,237.5v0.85H321.32L306.49,209H294.27v29.3H276V156.3h31.39a42.82,42.82,0,0,1,16.37,2.85,22.71,22.71,0,0,1,10.59,8.4A23.93,23.93,0,0,1,338,181.09q0,8.9-3.72,14.43a25.15,25.15,0,0,1-10.76,8.73Zm-46.66-43.22h13.07q6,0,9.19-3.07t3.16-8.48q0-5.52-3.13-8.59t-9.21-3.07H294.27v23.22Z" transform="translate(-25.17 -25.61)"/><path class="cls-3" d="M372.75,171.06v18h31.78v14.26H372.75v20.29h37.42v14.71H354.43V156.3h55.73v14.76H372.75Z" transform="translate(-25.17 -25.61)"/><path class="cls-3" d="M164.49,138.48H146.17V118.31L148,78.58l-21.08,59.9H114.62L93.54,78.58l1.8,39.73v20.17H77.09V56.43h24l19.72,57.82,19.72-57.82h24v82.05Z" transform="translate(-25.17 -25.61)"/><path class="cls-3" d="M197.71,71.19v18h31.78v14.26H197.71v20.29h37.42v14.71H179.39V56.43h55.73V71.19H197.71Z" transform="translate(-25.17 -25.61)"/><path class="cls-3" d="M291.85,122.65H263.22l-5.13,15.84h-19.5L269,56.43H286l30.49,82.05H297Zm-4.79-14.76-9.52-29.25-9.47,29.25h19Z" transform="translate(-25.17 -25.61)"/><path class="cls-3" d="M380.35,71.19H355.5v67.29H337.18V71.19H312.72V56.43h67.62V71.19Z" transform="translate(-25.17 -25.61)"/></svg>