<svg xmlns="http://www.w3.org/2000/svg" xmlns:xlink="http://www.w3.org/1999/xlink" viewBox="0 0 1925.82 1375.58"><defs><style>.cls-1{isolation:isolate;}.cls-2{fill:#6d0073;}.cls-3{fill:#8b0092;}.cls-4{fill:#ff8085;}.cls-5{fill:#b4a8c3;}.cls-23,.cls-24,.cls-39,.cls-48,.cls-5{mix-blend-mode:multiply;}.cls-6{fill:#aaa9c7;}.cls-7{fill:#161326;}.cls-8{fill:#e2dfea;}.cls-9{fill:#7d7da2;}.cls-10{fill:url(#linear-gradient);}.cls-11{fill:#030000;}.cls-12{fill:#092236;}.cls-13{opacity:0.27;}.cls-14{fill:#eff7ff;}.cls-15{fill:#6b8091;}.cls-16{fill:#923eff;}.cls-17{fill:#af8eff;}.cls-18{fill:#d9b8ff;}.cls-19{fill:#ff74b8;}.cls-20{fill:#ba32c0;}.cls-21{fill:#f14290;}.cls-22{fill:#fbf9fb;}.cls-23{fill:#d1c3e3;}.cls-24{fill:#b09bc5;}.cls-25{fill:#b8abd3;}.cls-26{fill:#e3247c;}.cls-27{fill:#ff50a0;}.cls-28{fill:#ede7f2;}.cls-29{fill:#072439;}.cls-30{fill:#344e5d;}.cls-31{fill:#b3316e;}.cls-32{fill:#ffc147;}.cls-33{fill:#bb2c41;}.cls-34{fill:#ffe861;}.cls-35{fill:#ff4e1c;}.cls-36{fill:#ff7900;}.cls-37{fill:#df465c;}.cls-38{fill:#ffec88;}.cls-39{fill:#dfd0f3;}.cls-40{fill:#f5497a;}.cls-41{fill:#f05;}.cls-42{fill:#6d21d3;}.cls-43{fill:#ff594f;}.cls-44{fill:#ffb523;}.cls-45{fill:#ffe13e;}.cls-46{fill:#bd6823;}.cls-47{fill:#b082f7;}.cls-49{fill:#cdb3ed;}.cls-50{fill:#f5e0dc;}.cls-51{fill:#97184d;}.cls-52{fill:#c83672;}.cls-53{fill:#f9e181;}.cls-54{fill:#ffb229;}.cls-55{fill:#ffc94f;}</style><linearGradient id="linear-gradient" x1="818.64" y1="673.52" x2="1801.1" y2="673.52" gradientUnits="userSpaceOnUse"><stop offset="0" stop-color="#ffc482"/><stop offset="1" stop-color="#f03c3c"/></linearGradient></defs><g class="cls-1"><g id="Capa_1" data-name="Capa 1"><rect class="cls-2" width="1924.72" height="1375.58"/><path class="cls-3" d="M695.75-144.63h0c0,141.47-114.62,256.16-256,256.16H.18V-144.63Z" transform="translate(-0.18 144.63)"/><path class="cls-3" d="M416.66,1144.19h0A86.73,86.73,0,0,1,330,1231H.18a152.32,152.32,0,0,1,152.27-152.36H351.1A65.58,65.58,0,0,1,416.66,1144.19Z" transform="translate(-0.18 144.63)"/><path class="cls-3" d="M1509.52-57.87h0a86.73,86.73,0,0,1,86.71-86.76H1926A152.31,152.31,0,0,1,1773.73,7.73H1575.08A65.58,65.58,0,0,1,1509.52-57.87Z" transform="translate(-0.18 144.63)"/><path class="cls-3" d="M715.63,1063c13.24,7.64,13.24,20,0,27.68s-34.68,7.64-47.91,0-13.24-20,0-27.68S702.4,1055.33,715.63,1063Z" transform="translate(-0.18 144.63)"/><path class="cls-3" d="M1640.26,1013.59c14.91,8.62,14.91,22.58,0,31.19s-39.08,8.61-54,0-14.91-22.57,0-31.19S1625.35,1005,1640.26,1013.59Z" transform="translate(-0.18 144.63)"/><path class="cls-4" d="M666.24,785.83c8.22,4.75,8.22,12.45,0,17.2s-21.55,4.75-29.78,0-8.22-12.45,0-17.2S658,781.08,666.24,785.83Z" transform="translate(-0.18 144.63)"/><path class="cls-4" d="M1143.31,1025.45c5.7,3.29,5.7,8.63,0,11.92s-14.94,3.29-20.64,0-5.7-8.63,0-11.92S1137.61,1022.15,1143.31,1025.45Z" transform="translate(-0.18 144.63)"/><path class="cls-3" d="M1082.17,820,877.09,938.44c-6.66,3.85-17.46,3.85-24.12,0h0c-6.67-3.85-6.67-10.09,0-13.93L1058.05,806c6.66-3.85,17.46-3.85,24.12,0h0C1088.83,809.88,1088.83,816.12,1082.17,820Z" transform="translate(-0.18 144.63)"/><path class="cls-3" d="M1240.6,728.45l-108.38,62.61c-6.66,3.85-17.46,3.85-24.12,0h0c-6.67-3.85-6.67-10.09,0-13.94l108.37-62.61c6.67-3.84,17.47-3.84,24.13,0h0C1247.26,718.36,1247.26,724.6,1240.6,728.45Z" transform="translate(-0.18 144.63)"/><path class="cls-3" d="M1143,722.69,937.89,841.16c-6.66,3.84-17.46,3.84-24.13,0h0c-6.66-3.85-6.66-10.09,0-13.94l205.08-118.47c6.66-3.85,17.46-3.85,24.13,0h0C1149.63,712.6,1149.63,718.84,1143,722.69Z" transform="translate(-0.18 144.63)"/><path class="cls-3" d="M1405.2,571.2,1200.12,689.67c-6.66,3.85-17.46,3.85-24.12,0h0c-6.66-3.85-6.66-10.09,0-13.94l205.08-118.47c6.66-3.85,17.46-3.85,24.12,0h0C1411.86,561.11,1411.86,567.35,1405.2,571.2Z" transform="translate(-0.18 144.63)"/><path class="cls-3" d="M1523,627.48,1317.9,746c-6.66,3.85-17.46,3.85-24.12,0h0c-6.66-3.84-6.66-10.08,0-13.93l205.08-118.47c6.66-3.85,17.46-3.85,24.12,0h0C1529.64,617.4,1529.64,623.64,1523,627.48Z" transform="translate(-0.18 144.63)"/><path class="cls-3" d="M1136,851.05l-60,34.68c-6.66,3.85-17.46,3.85-24.12,0h0c-6.66-3.85-6.66-10.09,0-13.94l60-34.67c6.66-3.85,17.46-3.85,24.12,0h0C1142.63,841,1142.63,847.2,1136,851.05Z" transform="translate(-0.18 144.63)"/><path class="cls-3" d="M1650.64,553.74l-60,34.68c-6.66,3.84-17.46,3.84-24.12,0h0c-6.66-3.85-6.66-10.09,0-13.94l60-34.68c6.66-3.84,17.46-3.84,24.12,0h0C1657.3,543.65,1657.3,549.89,1650.64,553.74Z" transform="translate(-0.18 144.63)"/><path class="cls-3" d="M1183.76,637,978.68,755.43c-6.66,3.85-17.46,3.85-24.12,0h0c-6.66-3.85-6.66-10.09,0-13.94L1159.64,623c6.66-3.85,17.46-3.85,24.12,0h0C1190.42,626.87,1190.42,633.11,1183.76,637Z" transform="translate(-0.18 144.63)"/><path class="cls-3" d="M1311.42,563.21l-60,34.68c-6.66,3.85-17.46,3.85-24.12,0h0c-6.66-3.85-6.66-10.09,0-13.94l60-34.67c6.66-3.85,17.46-3.85,24.12,0h0C1318.08,553.12,1318.08,559.36,1311.42,563.21Z" transform="translate(-0.18 144.63)"/><path class="cls-3" d="M1412.25,1047.5,1207.17,1166c-6.66,3.85-17.46,3.85-24.12,0h0c-6.67-3.84-6.67-10.08,0-13.93l205.08-118.47c6.66-3.85,17.46-3.85,24.12,0h0C1418.91,1037.42,1418.91,1043.66,1412.25,1047.5Z" transform="translate(-0.18 144.63)"/><path class="cls-3" d="M1570.68,956l-108.38,62.61c-6.66,3.85-17.46,3.85-24.12,0h0c-6.67-3.85-6.67-10.09,0-13.93l108.37-62.61c6.67-3.85,17.47-3.85,24.13,0h0C1577.34,945.9,1577.34,952.14,1570.68,956Z" transform="translate(-0.18 144.63)"/><path class="cls-3" d="M1473.05,950.22,1268,1068.69c-6.67,3.85-17.47,3.85-24.13,0h0c-6.66-3.85-6.66-10.09,0-13.93l205.08-118.47c6.66-3.85,17.46-3.85,24.13,0h0C1479.71,940.13,1479.71,946.37,1473.05,950.22Z" transform="translate(-0.18 144.63)"/><path class="cls-3" d="M1735.28,798.73,1530.2,917.2c-6.66,3.85-17.46,3.85-24.12,0h0c-6.66-3.85-6.66-10.08,0-13.93L1711.16,784.8c6.66-3.85,17.46-3.85,24.12,0h0C1741.94,788.64,1741.94,794.88,1735.28,798.73Z" transform="translate(-0.18 144.63)"/><path class="cls-3" d="M1853.06,855,1648,973.49c-6.66,3.85-17.46,3.85-24.12,0h0c-6.66-3.85-6.66-10.09,0-13.94l205.08-118.47c6.66-3.84,17.46-3.84,24.12,0h0C1859.72,844.93,1859.72,851.17,1853.06,855Z" transform="translate(-0.18 144.63)"/><path class="cls-3" d="M1466.05,1078.59l-60,34.67c-6.66,3.85-17.46,3.85-24.12,0h0c-6.66-3.85-6.66-10.08,0-13.93l60-34.68c6.66-3.85,17.46-3.85,24.12,0h0C1472.71,1068.5,1472.71,1074.74,1466.05,1078.59Z" transform="translate(-0.18 144.63)"/><path class="cls-3" d="M1513.84,864.49,1308.76,983c-6.66,3.85-17.46,3.85-24.12,0h0c-6.66-3.85-6.66-10.09,0-13.93l205.08-118.47c6.66-3.85,17.46-3.85,24.12,0h0C1520.5,854.4,1520.5,860.64,1513.84,864.49Z" transform="translate(-0.18 144.63)"/><path class="cls-3" d="M1641.5,790.75l-60,34.67c-6.66,3.85-17.46,3.85-24.12,0h0c-6.66-3.85-6.66-10.08,0-13.93l60-34.68c6.66-3.85,17.46-3.85,24.12,0h0C1648.16,780.66,1648.16,786.9,1641.5,790.75Z" transform="translate(-0.18 144.63)"/><path class="cls-3" d="M1271.56,891.08l-205.08,118.47c-6.66,3.85-17.46,3.85-24.12,0h0c-6.66-3.85-6.66-10.09,0-13.94l205.08-118.47c6.66-3.85,17.46-3.85,24.12,0h0C1278.23,881,1278.23,887.23,1271.56,891.08Z" transform="translate(-0.18 144.63)"/><path class="cls-3" d="M1430,799.56l-108.38,62.61c-6.66,3.84-17.46,3.84-24.12,0h0c-6.66-3.85-6.66-10.09,0-13.94l108.38-62.61c6.66-3.85,17.46-3.85,24.12,0h0C1436.65,789.47,1436.65,795.71,1430,799.56Z" transform="translate(-0.18 144.63)"/><path class="cls-3" d="M1332.36,793.79,1127.28,912.26c-6.66,3.85-17.46,3.85-24.12,0h0c-6.66-3.84-6.66-10.08,0-13.93l205.08-118.47c6.66-3.85,17.46-3.85,24.12,0h0C1339,783.71,1339,790,1332.36,793.79Z" transform="translate(-0.18 144.63)"/><path class="cls-3" d="M1594.6,642.31,1389.52,760.78c-6.66,3.84-17.46,3.84-24.12,0h0c-6.67-3.85-6.67-10.09,0-13.94l205.08-118.47c6.66-3.85,17.46-3.85,24.12,0h0C1601.26,632.22,1601.26,638.46,1594.6,642.31Z" transform="translate(-0.18 144.63)"/><path class="cls-3" d="M1712.38,698.59,1507.3,817.06c-6.66,3.85-17.46,3.85-24.12,0h0c-6.67-3.85-6.67-10.09,0-13.93l205.08-118.47c6.66-3.85,17.46-3.85,24.12,0h0C1719,688.5,1719,694.74,1712.38,698.59Z" transform="translate(-0.18 144.63)"/><path class="cls-3" d="M1325.37,922.16l-60,34.68c-6.66,3.84-17.46,3.84-24.12,0h0c-6.66-3.85-6.66-10.09,0-13.94l60-34.68c6.66-3.84,17.46-3.84,24.12,0h0C1332,912.07,1332,918.31,1325.37,922.16Z" transform="translate(-0.18 144.63)"/><path class="cls-3" d="M1840,624.85l-60,34.67c-6.66,3.85-17.46,3.85-24.12,0h0c-6.67-3.84-6.67-10.08,0-13.93l60-34.68c6.66-3.85,17.46-3.85,24.13,0h0C1846.7,614.76,1846.7,621,1840,624.85Z" transform="translate(-0.18 144.63)"/><path class="cls-3" d="M1373.16,708.06,1168.08,826.53c-6.66,3.85-17.46,3.85-24.13,0h0c-6.66-3.84-6.66-10.08,0-13.93L1349,694.13c6.67-3.85,17.47-3.85,24.13,0h0C1379.82,698,1379.82,704.22,1373.16,708.06Z" transform="translate(-0.18 144.63)"/><path class="cls-3" d="M1500.81,634.32l-60,34.68c-6.66,3.84-17.46,3.84-24.13,0h0c-6.66-3.85-6.66-10.09,0-13.94l60-34.68c6.66-3.84,17.46-3.84,24.12,0h0C1507.48,624.23,1507.48,630.47,1500.81,634.32Z" transform="translate(-0.18 144.63)"/><path class="cls-3" d="M885.5,750.39l-194,112.08c-6.3,3.64-16.52,3.64-22.82,0h0c-6.31-3.64-6.31-9.54,0-13.18l194-112.08c6.3-3.65,16.52-3.65,22.82,0h0C891.8,740.85,891.8,746.75,885.5,750.39Z" transform="translate(-0.18 144.63)"/><path class="cls-3" d="M1035.38,663.8,932.85,723c-6.3,3.64-16.52,3.64-22.82,0h0c-6.31-3.65-6.31-9.55,0-13.19l102.53-59.23c6.3-3.64,16.52-3.64,22.82,0h0C1041.68,654.26,1041.68,660.16,1035.38,663.8Z" transform="translate(-0.18 144.63)"/><path class="cls-3" d="M943,658.35,749,770.43c-6.31,3.64-16.52,3.64-22.83,0h0c-6.3-3.64-6.3-9.54,0-13.18l194-112.08c6.31-3.64,16.52-3.64,22.83,0h0C949.32,648.81,949.32,654.71,943,658.35Z" transform="translate(-0.18 144.63)"/><path class="cls-3" d="M1191.11,515l-194,112.08c-6.3,3.64-16.52,3.64-22.82,0h0c-6.3-3.64-6.3-9.54,0-13.18l194-112.08c6.3-3.64,16.52-3.64,22.82,0h0C1197.41,505.49,1197.41,511.39,1191.11,515Z" transform="translate(-0.18 144.63)"/><path class="cls-3" d="M1302.54,568.28l-194,112.08c-6.3,3.65-16.52,3.65-22.82,0h0c-6.31-3.64-6.31-9.54,0-13.18l194-112.08c6.3-3.64,16.52-3.64,22.82,0h0C1308.84,558.74,1308.84,564.64,1302.54,568.28Z" transform="translate(-0.18 144.63)"/><path class="cls-3" d="M936.4,779.79,879.61,812.6c-6.3,3.64-16.52,3.64-22.82,0h0c-6.3-3.64-6.3-9.54,0-13.18l56.79-32.81c6.3-3.64,16.52-3.64,22.82,0h0C942.7,770.25,942.7,776.15,936.4,779.79Z" transform="translate(-0.18 144.63)"/><path class="cls-3" d="M1423.31,498.52l-56.79,32.8c-6.3,3.64-16.52,3.64-22.82,0h0c-6.3-3.64-6.3-9.54,0-13.18l56.79-32.81c6.3-3.64,16.52-3.64,22.82,0h0C1429.61,489,1429.61,494.87,1423.31,498.52Z" transform="translate(-0.18 144.63)"/><path class="cls-3" d="M981.61,577.24l-194,112.09c-6.3,3.64-16.52,3.64-22.82,0h0c-6.3-3.64-6.3-9.55,0-13.19l194-112.08c6.3-3.64,16.52-3.64,22.82,0h0C987.91,567.7,987.91,573.6,981.61,577.24Z" transform="translate(-0.18 144.63)"/><path class="cls-3" d="M1102.39,507.48l-56.8,32.8c-6.3,3.64-16.52,3.64-22.82,0h0c-6.3-3.64-6.3-9.54,0-13.18l56.79-32.81c6.31-3.64,16.52-3.64,22.83,0h0C1108.69,497.93,1108.69,503.84,1102.39,507.48Z" transform="translate(-0.18 144.63)"/><path class="cls-5" d="M1782.93,924.94,1536,1067.49c-30.61,17.67-80.24,17.67-110.85,0L834.72,726.6c-30.61-17.68-30.61-46.33,0-64L1081.63,520c30.61-17.67,80.24-17.67,110.86,0l590.44,340.89C1813.54,878.61,1813.54,907.26,1782.93,924.94Z" transform="translate(-0.18 144.63)"/><path class="cls-6" d="M812.36,599.56c3.5,4.57,8.23,8,13.14,10.89l593.59,342.87a75.62,75.62,0,0,0,22.32,8.54,119,119,0,0,0,24,2.57c16.35.06,33-3.35,46.4-11.11l282.46-163.15c8-4.6,16.63-12.54,18.7-21.52a20.71,20.71,0,0,0,.5-4.57v42.11c0,11.58-9,20.87-19.2,26.78L1511.82,996.15a75.67,75.67,0,0,1-22.32,8.51c-22.92,4.91-50.22,3.16-70.41-8.51L825.5,653.25a61.94,61.94,0,0,1-7.45-5.07c-6.44-5.1-11.72-13.68-11.72-21.9h0V583.63h0A28.19,28.19,0,0,0,812.36,599.56Z" transform="translate(-0.18 144.63)"/><path class="cls-7" d="M1676.94,871.08c1.81-1,3.44-1.19,4.69-.6s2.28,2.25,2.28,4.63v3a15.42,15.42,0,0,1-7,12.08l-47.78,27.59c-1.93,1.13-3.66,1.22-4.9.5s-2.07-2.28-2.07-4.5v-3a15.41,15.41,0,0,1,7-12Z" transform="translate(-0.18 144.63)"/><path class="cls-7" d="M1570.88,931.58c6.66-6.76,13-4.07,12.85,2.91-.28,10.48-10.66,20.71-16.29,17.2a6.07,6.07,0,0,1-1.94-2.09,9,9,0,0,1-.74-5.54,20.73,20.73,0,0,1,2-6.6,0,0,0,0,1,0,0,23.81,23.81,0,0,0,1.47-2.57A20.45,20.45,0,0,1,1570.88,931.58Z" transform="translate(-0.18 144.63)"/><path class="cls-8" d="M823.9,596.93c4.88,5.88,8.79,7.45,25.86,17.43.31.18,578.45,334.27,581.46,335.74,9.81,4.78,22,7.19,34.26,7.19l-.06,7.14a119,119,0,0,1-24-2.57,75.62,75.62,0,0,1-22.32-8.54L825.5,610.45c-4.91-2.85-9.64-6.32-13.14-10.89a28.19,28.19,0,0,1-6-15.93,18.49,18.49,0,0,1,.47-5.25c2.09-9,10.72-16.92,18.7-21.52L1108,393.71c13.45-7.76,30-11.14,46.37-11.11l-.06,7.14a88.44,88.44,0,0,0-18.26,1.87c-12.23,2.6-18.13,6.32-27.23,11.77s21-12.3-106,61.06c-20.66,11.95-41.24,24.12-61.9,36s-41.43,23.62-62.07,35.7c-8.59,5-17.16,10.13-25.79,15-10.1,5.7-19.51,10.67-24.33,14.52C817.9,574.34,815.08,586.33,823.9,596.93Z" transform="translate(-0.18 144.63)"/><polygon class="cls-8" points="966.14 859.08 970.88 856.34 918.8 826.26 914.07 829 966.14 859.08"/><polygon class="cls-9" points="970.88 862.92 970.88 856.34 966.14 859.08 966.14 865.66 970.88 862.92"/><polygon class="cls-9" points="966.14 865.66 966.14 859.08 914.07 829 914.07 835.58 966.14 865.66"/><path class="cls-7" d="M1540.42,959.33h0a4,4,0,0,0,1.83-3.1h0c0-1.12-.82-1.56-1.83-1h0a4,4,0,0,0-1.83,3.09h0C1538.59,959.47,1539.41,959.91,1540.42,959.33Z" transform="translate(-0.18 144.63)"/><path class="cls-7" d="M1779.13,831.31h0a6.19,6.19,0,0,0,2.84-4.8V813c0-1.74-1.28-2.42-2.84-1.52h0a6.19,6.19,0,0,0-2.84,4.8V829.8C1776.29,831.53,1777.56,832.22,1779.13,831.31Z" transform="translate(-0.18 144.63)"/><path class="cls-7" d="M1767.76,837.88h0a6.17,6.17,0,0,0,2.85-4.8V819.54c0-1.73-1.28-2.42-2.85-1.51h0a6.19,6.19,0,0,0-2.84,4.8v13.53C1764.92,838.1,1766.2,838.78,1767.76,837.88Z" transform="translate(-0.18 144.63)"/><path class="cls-7" d="M1756.4,844.44h0a6.19,6.19,0,0,0,2.84-4.8V826.11c0-1.74-1.28-2.42-2.84-1.52h0a6.19,6.19,0,0,0-2.84,4.8v13.53C1753.56,844.66,1754.84,845.34,1756.4,844.44Z" transform="translate(-0.18 144.63)"/><path class="cls-7" d="M1745,851h0a6.22,6.22,0,0,0,2.84-4.8V832.67c0-1.74-1.28-2.42-2.84-1.52h0a6.22,6.22,0,0,0-2.84,4.8v13.54C1742.2,851.22,1743.48,851.91,1745,851Z" transform="translate(-0.18 144.63)"/><path class="cls-7" d="M1733.68,857.57h0a6.19,6.19,0,0,0,2.84-4.8V839.24c0-1.74-1.28-2.42-2.84-1.52h0a6.16,6.16,0,0,0-2.84,4.8v13.53C1730.84,857.79,1732.11,858.47,1733.68,857.57Z" transform="translate(-0.18 144.63)"/><path class="cls-7" d="M1722.31,864.13h0a6.17,6.17,0,0,0,2.85-4.8V845.8c0-1.74-1.28-2.42-2.85-1.52h0a6.19,6.19,0,0,0-2.84,4.8v13.54C1719.47,864.35,1720.75,865,1722.31,864.13Z" transform="translate(-0.18 144.63)"/><path class="cls-8" d="M1794.28,790.17,1511.82,953.32c-13.44,7.76-30,11.17-46.4,11.11l.06-7.14a82.21,82.21,0,0,0,31.11-5.81c5.48-2.29,9.54-4.92,14.42-7.83,9.22-5.53-21,12.3,106-61.06,20.67-12,41.24-24.12,61.91-36s41.46-23.62,62.06-35.7c8.6-5,17.17-10.13,25.83-15,17.1-9.64,25.17-13.39,30.45-21,6.91-9.94,5.32-23.08-11.75-33.19-.66-.4-594.28-343.4-597-344.72-9.41-4.57-21.57-7.19-34.3-7.19l.06-7.14a119.63,119.63,0,0,1,24,2.57,76.22,76.22,0,0,1,22.35,8.54l593.56,342.87a44.15,44.15,0,0,1,13.16,10.89,28,28,0,0,1,6,16.61,20.71,20.71,0,0,1-.5,4.57C1810.91,777.63,1802.25,785.57,1794.28,790.17Z" transform="translate(-0.18 144.63)"/><path class="cls-8" d="M1199.49,403.23c-6.9-4-10.74-6.21-11-6.3-9.41-4.57-21.56-7.18-34.3-7.19a88.37,88.37,0,0,0-18.25,1.89c-12.23,2.59-18.15,6.31-27.22,11.76-8.57,5.15,17-9.92-81.75,47l-24.3,14c-20.66,12-41.25,24.13-61.88,36.05q-8.51,4.9-17,9.74c-15,8.62-30.09,17.18-45.06,25.95-8.59,5.05-17.15,10.14-25.79,15-10.07,5.7-19.51,10.68-24.33,14.53-10.74,8.63-13.58,20.61-4.76,31.22,4.89,5.87,8.79,7.44,25.86,17.43l251.06,145c156.58,90.45,328.76,189.89,330.43,190.7,9.79,4.8,22,7.2,34.25,7.2a82,82,0,0,0,31.09-5.82c5.49-2.28,9.56-4.9,14.41-7.82,9.23-5.54-21,12.29,106-61.06,20.66-12,41.24-24.12,61.9-36.05s41.46-23.62,62.09-35.69c8.56-5,17.15-10.15,25.79-15,17.12-9.62,25.17-13.38,30.45-21,6.67-9.56,5.44-22.06-9.84-32q-.93-.63-1.92-1.2C1784.9,741.29,1280.72,450,1199.49,403.23Z" transform="translate(-0.18 144.63)"/><path class="cls-10" d="M1787.41,742.86c15.28,9.92,16.51,22.42,9.84,32-5.28,7.62-13.33,11.38-30.45,21-8.64,4.87-17.23,10-25.79,15-20.63,12.07-41.4,23.77-62.09,35.69s-41.24,24.09-61.9,36.05c-127,73.35-96.82,55.52-106,61.06-4.85,2.92-8.92,5.54-14.41,7.82-19.87,8.31-47,7.6-65.34-1.38-2.75-1.34-505.47-291.82-581.49-335.73-17.07-10-21-11.56-25.86-17.43-8.82-10.61-6-22.59,4.76-31.22,5.86-4.68,271.88-157.36,280.14-162.33,9.07-5.45,15-9.17,27.22-11.76,18.71-4,38.79-1.39,52.55,5.3C1188.92,397.1,1172.81,387.82,1787.41,742.86Z" transform="translate(-0.18 144.63)"/><path class="cls-11" d="M1014.83,472.73a10,10,0,0,1,9.25,0l3.44,2L964.64,511a10.22,10.22,0,0,1-9.28,0l-3.41-2Z" transform="translate(-0.18 144.63)"/><path class="cls-12" d="M1024.08,466.31l4.35,2.5c2.59,1.5,2.53,3.88,0,5.35l-.91.54-3.44-2a10,10,0,0,0-9.25,0L952,509.05l-.9-.54a3.34,3.34,0,0,1-1.94-2.62v-.07a3.22,3.22,0,0,1,1.94-2.66l63.78-36.85A10.16,10.16,0,0,1,1024.08,466.31Z" transform="translate(-0.18 144.63)"/><g class="cls-13"><path class="cls-14" d="M1079.14,541.2,950.4,615.56a16.69,16.69,0,0,1-15.14,0h0c-4.18-2.41-4.18-6.33,0-8.75L1064,532.45a16.71,16.71,0,0,1,15.15,0h0C1083.32,534.86,1083.32,538.78,1079.14,541.2Z" transform="translate(-0.18 144.63)"/><path class="cls-14" d="M1070.52,581.15l-89.85,51.9a16.76,16.76,0,0,1-15.14,0h0c-4.18-2.42-4.18-6.33,0-8.75l89.84-51.9a16.78,16.78,0,0,1,15.15,0h0C1074.7,574.82,1074.7,578.73,1070.52,581.15Z" transform="translate(-0.18 144.63)"/><path class="cls-14" d="M1100.79,598.64,1011,650.53a16.71,16.71,0,0,1-15.15,0h0c-4.18-2.41-4.18-6.33,0-8.74l89.84-51.9a16.71,16.71,0,0,1,15.15,0h0C1105,592.3,1105,596.22,1100.79,598.64Z" transform="translate(-0.18 144.63)"/></g><g class="cls-13"><path class="cls-14" d="M1277,666.07l-128.73,74.37a16.71,16.71,0,0,1-15.15,0h0c-4.18-2.41-4.18-6.33,0-8.75l128.74-74.36a16.69,16.69,0,0,1,15.14,0h0C1281.15,659.74,1281.15,663.66,1277,666.07Z" transform="translate(-0.18 144.63)"/><path class="cls-14" d="M1268.35,706l-89.84,51.9a16.76,16.76,0,0,1-15.14,0h0c-4.19-2.42-4.19-6.33,0-8.75l89.84-51.9a16.69,16.69,0,0,1,15.14,0h0C1272.53,699.7,1272.53,703.61,1268.35,706Z" transform="translate(-0.18 144.63)"/><path class="cls-14" d="M1298.62,723.51l-89.84,51.9a16.69,16.69,0,0,1-15.14,0h0c-4.19-2.41-4.19-6.33,0-8.74l89.84-51.9a16.69,16.69,0,0,1,15.14,0h0C1302.8,717.18,1302.8,721.1,1298.62,723.51Z" transform="translate(-0.18 144.63)"/></g><g class="cls-13"><path class="cls-14" d="M1540.55,630.29l-128.74,74.37a16.76,16.76,0,0,1-15.14,0h0c-4.18-2.42-4.18-6.34,0-8.75l128.73-74.37a16.78,16.78,0,0,1,15.15,0h0C1544.73,624,1544.73,627.87,1540.55,630.29Z" transform="translate(-0.18 144.63)"/><path class="cls-14" d="M1531.92,670.24l-89.84,51.9a16.69,16.69,0,0,1-15.14,0h0c-4.18-2.41-4.18-6.33,0-8.74l89.84-51.9a16.69,16.69,0,0,1,15.14,0h0C1536.11,663.91,1536.11,667.83,1531.92,670.24Z" transform="translate(-0.18 144.63)"/><path class="cls-14" d="M1562.19,687.73l-89.84,51.9a16.69,16.69,0,0,1-15.14,0h0c-4.18-2.42-4.18-6.33,0-8.75l89.84-51.9a16.76,16.76,0,0,1,15.14,0h0C1566.38,681.4,1566.38,685.31,1562.19,687.73Z" transform="translate(-0.18 144.63)"/></g><g class="cls-13"><path class="cls-14" d="M1512.93,795.66,1384.19,870a16.76,16.76,0,0,1-15.14,0h0c-4.18-2.42-4.18-6.33,0-8.75l128.73-74.36a16.71,16.71,0,0,1,15.15,0h0C1517.11,789.33,1517.11,793.25,1512.93,795.66Z" transform="translate(-0.18 144.63)"/><path class="cls-14" d="M1504.31,835.62l-89.85,51.9a16.76,16.76,0,0,1-15.14,0h0c-4.18-2.42-4.18-6.34,0-8.75l89.84-51.9a16.71,16.71,0,0,1,15.15,0h0C1508.49,829.28,1508.49,833.2,1504.31,835.62Z" transform="translate(-0.18 144.63)"/><path class="cls-14" d="M1534.58,853.1,1444.74,905a16.71,16.71,0,0,1-15.15,0h0c-4.18-2.41-4.18-6.33,0-8.75l89.84-51.89a16.71,16.71,0,0,1,15.15,0h0C1538.76,846.77,1538.76,850.69,1534.58,853.1Z" transform="translate(-0.18 144.63)"/></g><g class="cls-13"><path class="cls-15" d="M1330.27,504.5l-128.73,74.36a16.69,16.69,0,0,1-15.14,0h0c-4.19-2.41-4.19-6.33,0-8.74l128.73-74.37a16.76,16.76,0,0,1,15.14,0h0C1334.45,498.17,1334.45,502.08,1330.27,504.5Z" transform="translate(-0.18 144.63)"/><path class="cls-15" d="M1321.65,544.45l-89.84,51.9a16.69,16.69,0,0,1-15.14,0h0c-4.18-2.41-4.18-6.33,0-8.75l89.84-51.9a16.76,16.76,0,0,1,15.14,0h0C1325.83,538.12,1325.83,542,1321.65,544.45Z" transform="translate(-0.18 144.63)"/><path class="cls-15" d="M1351.92,561.94l-89.84,51.9a16.76,16.76,0,0,1-15.14,0h0c-4.18-2.42-4.18-6.33,0-8.75l89.84-51.9a16.76,16.76,0,0,1,15.14,0h0C1356.1,555.61,1356.1,559.52,1351.92,561.94Z" transform="translate(-0.18 144.63)"/></g><path class="cls-16" d="M946.75,207.6v71.45c0,25-17.55,55.44-39.21,67.95l-9.15,5.28L876.63,404.7l-21.76-27.26q-4.59,2.63-9.15,5.28c-.89.51-1.77,1-2.64,1.41-9.78,4.91-18.58,5.1-25.1,1.33l-.51-.31c-6.8-4.21-11-12.88-11-25.08V288.64c0-25,17.56-55.46,39.22-68L907.54,185c10.62-6.14,20.25-6.84,27.3-3l.42.24C942.36,186.31,946.75,195.09,946.75,207.6Z" transform="translate(-0.18 144.63)"/><path class="cls-17" d="M786.18,367.09c-7.1-4.1-11.48-12.9-11.48-25.39V270.25c0-25,17.54-55.44,39.2-67.95l61.83-35.72c10.84-6.26,20.64-6.83,27.72-2.74q15.72,9,31.39,18.13c-7.05-3.84-16.68-3.14-27.3,3l-61.82,35.7c-21.66,12.51-39.22,42.93-39.22,68v71.43c0,12.2,4.17,20.87,11,25.08Q801.83,376.14,786.18,367.09Z" transform="translate(-0.18 144.63)"/><path class="cls-17" d="M854.87,377.44l21.76,27.26-31.82-18.37-1.73-2.2c.87-.42,1.75-.9,2.64-1.41Q850.28,380.06,854.87,377.44Z" transform="translate(-0.18 144.63)"/><path class="cls-18" d="M898.93,255c-8.28-7.42-24.49-1.52-36.19,13.19s-14.46,32.65-6.18,40.08c7.18,6.42,20.28,2.86,31.27-7.76l15,13.45c1.72,1.53,5.16.2,7.69-3s3.18-7,1.47-8.54L897,289C905,275.7,906.11,261.39,898.93,255Zm-9.79,36.84c-8.88,11.16-21.18,15.64-27.47,10s-4.19-19.25,4.69-30.42,21.18-15.64,27.47-10S898,280.63,889.14,291.8Z" transform="translate(-0.18 144.63)"/><ellipse class="cls-3" cx="783.58" cy="551.53" rx="23.72" ry="13.7"/><path class="cls-3" d="M1890.56,360.12c9.26,5.35,9.26,14,0,19.38s-24.28,5.35-33.54,0-9.26-14,0-19.38S1881.3,354.77,1890.56,360.12Z" transform="translate(-0.18 144.63)"/><path class="cls-19" d="M808.13,478l3.42,5a1.12,1.12,0,0,0,1.45.21l7.66-3.31c1.58-.68,2.21.9,1.07,2.68l-5.54,8.6a3,3,0,0,0-.56,2l1.31,6.87c.27,1.42-1.38,3.57-2.8,3.65l-6.84.35a2.89,2.89,0,0,0-1.8,1l-6.84,7.55c-1.42,1.57-3.07,1.32-2.8-.41l1.31-8.39c.11-.68-.1-1.2-.56-1.38l-5.54-2.21c-1.14-.45-.51-2.76,1.07-3.9l7.66-5.54a4.3,4.3,0,0,0,1.45-1.89l3.42-8.92C805.38,478.19,807.42,477,808.13,478Z" transform="translate(-0.18 144.63)"/><path class="cls-19" d="M847,455.6l3.42,5a1.13,1.13,0,0,0,1.45.21l7.66-3.31c1.58-.68,2.21.9,1.07,2.68l-5.54,8.6a3,3,0,0,0-.56,2l1.31,6.87c.27,1.42-1.38,3.57-2.8,3.65l-6.84.35a2.89,2.89,0,0,0-1.8,1l-6.84,7.55c-1.42,1.56-3.07,1.32-2.8-.41l1.31-8.39c.1-.69-.1-1.2-.56-1.38l-5.54-2.21c-1.14-.45-.51-2.76,1.07-3.9l7.66-5.54a4.38,4.38,0,0,0,1.45-1.89l3.42-8.92C844.21,455.76,846.25,454.58,847,455.6Z" transform="translate(-0.18 144.63)"/><path class="cls-19" d="M885.79,433.17l3.42,5c.28.4.82.48,1.45.21l7.66-3.31c1.58-.68,2.21.9,1.07,2.68l-5.54,8.6a2.93,2.93,0,0,0-.56,2l1.31,6.88c.27,1.42-1.38,3.57-2.8,3.65l-6.84.35a2.86,2.86,0,0,0-1.8,1l-6.84,7.55c-1.42,1.56-3.07,1.32-2.8-.41l1.31-8.39c.1-.69-.1-1.2-.56-1.39l-5.54-2.2c-1.14-.45-.51-2.76,1.07-3.9l7.66-5.54a4.38,4.38,0,0,0,1.45-1.89l3.42-8.92C883,433.33,885.08,432.15,885.79,433.17Z" transform="translate(-0.18 144.63)"/><path class="cls-20" d="M924.62,410.74l3.42,5c.28.41.82.49,1.45.22l7.66-3.31c1.58-.68,2.21.9,1.06,2.67l-5.53,8.61a2.93,2.93,0,0,0-.56,2l1.31,6.88c.27,1.42-1.38,3.57-2.8,3.64l-6.84.36a2.84,2.84,0,0,0-1.8,1l-6.84,7.56c-1.42,1.56-3.07,1.32-2.8-.42l1.31-8.38c.1-.69-.1-1.21-.56-1.39l-5.54-2.2c-1.14-.45-.51-2.76,1.07-3.91l7.66-5.53a4.38,4.38,0,0,0,1.45-1.89l3.42-8.92C921.87,410.9,923.91,409.72,924.62,410.74Z" transform="translate(-0.18 144.63)"/><path class="cls-20" d="M963.45,388.31l3.42,5c.28.41.82.49,1.45.22l7.66-3.31c1.58-.68,2.21.9,1.06,2.67l-5.53,8.61a2.93,2.93,0,0,0-.56,2l1.31,6.88c.27,1.41-1.38,3.57-2.8,3.64l-6.84.36a2.84,2.84,0,0,0-1.8,1L954,423c-1.41,1.56-3.06,1.31-2.79-.42l1.31-8.38c.1-.69-.1-1.21-.56-1.39l-5.54-2.2c-1.14-.45-.51-2.76,1.07-3.91l7.66-5.53a4.44,4.44,0,0,0,1.45-1.89l3.42-8.92C960.7,388.47,962.74,387.29,963.45,388.31Z" transform="translate(-0.18 144.63)"/><path class="cls-19" d="M1379,86.27v59.09c0,20.69,14.51,45.84,32.42,56.19l7.57,4.37,18,43.34,18-22.54c2.53,1.45,5.06,2.91,7.57,4.37.74.42,1.47.81,2.18,1.16,8.09,4.07,15.37,4.22,20.76,1.1l.42-.25c5.62-3.49,9.08-10.65,9.08-20.75V153.28c0-20.7-14.53-45.85-32.44-56.2l-51.12-29.53c-8.78-5.07-16.75-5.65-22.58-2.47l-.35.2C1382.64,68.66,1379,75.93,1379,86.27Z" transform="translate(-0.18 144.63)"/><path class="cls-21" d="M1511.8,218.16c5.87-3.39,9.49-10.67,9.49-21V138.08c0-20.69-14.51-45.85-32.42-56.19l-51.12-29.54c-9-5.17-17.07-5.65-22.93-2.26q-13,7.47-26,15c5.83-3.18,13.8-2.6,22.58,2.47l51.12,29.53c17.91,10.35,32.44,35.5,32.44,56.2v59.07c0,10.1-3.46,17.26-9.08,20.75Z" transform="translate(-0.18 144.63)"/><path class="cls-21" d="M1455,226.72l-18,22.54,26.31-15.19,1.43-1.82c-.71-.35-1.44-.74-2.18-1.16C1460.05,229.63,1457.52,228.17,1455,226.72Z" transform="translate(-0.18 144.63)"/><path class="cls-22" d="M1432.73,126.09a1.74,1.74,0,0,0-1.51-.25l-1.5.64-8.22-4.75c-3.17-1.83-5.89-1-6.34,1.85l-.74,4.74,4.31,2.49.66-4.19c.14-1,1.06-1.22,2.11-.62l9.1,5.26a1.74,1.74,0,0,0,1.51.25l1.51-.64,6.77,3.91,1.5,2.38a4.69,4.69,0,0,0,1.51,1.5l9.11,5.26a4.6,4.6,0,0,1,2.11,3.05l.65,4.95,4.31,2.49-.74-5.6a13.79,13.79,0,0,0-6.33-9.16l-8.22-4.75-1.51-2.38a4.6,4.6,0,0,0-1.51-1.5Zm-21.34,4.75c-1.17-.68-2.13-.27-2.13.91V136a4.45,4.45,0,0,0,2.13,3.36l.36.21,3.32,21.83a9.23,9.23,0,0,0,4.21,6l35.44,20.47c2.09,1.21,3.87.73,4.22-1.13l3.32-18,.35.2c1.17.68,2.13.27,2.13-.9V163.8a4.45,4.45,0,0,0-2.13-3.37Zm36.28,31.64a4.4,4.4,0,0,1,2.13,3.36v10.68c0,1.18-1,1.58-2.13.9a4.42,4.42,0,0,1-2.13-3.37V163.38c0-1.18,1-1.58,2.13-.9ZM1437,156.31a4.42,4.42,0,0,1,2.13,3.37v10.68c0,1.17-1,1.58-2.13.9a4.45,4.45,0,0,1-2.13-3.37V157.21c0-1.17,1-1.58,2.13-.9Zm-10.67-6.16a4.43,4.43,0,0,1,2.14,3.37v10.67c0,1.18-1,1.58-2.14.9a4.43,4.43,0,0,1-2.13-3.36V151.05c0-1.18,1-1.58,2.13-.9Z" transform="translate(-0.18 144.63)"/><path class="cls-23" d="M1560,742.77l-136,78.51c-13.44,7.75-35.22,7.75-48.65,0L1125.66,677.1c-13.43-7.76-13.43-20.33,0-28.09l136-78.51c13.44-7.75,35.22-7.75,48.65,0L1560,714.68C1573.45,722.44,1573.45,735,1560,742.77Z" transform="translate(-0.18 144.63)"/><path class="cls-24" d="M1600.46,817.69c-3.19-5.7-12.06-9.6-18.62-10.88-8.53-1.66-17.09-.17-23.21,3.37q-7.08,4.11-7.08,9.38v4c0,4.8,4.73,8.44,8.89,10.84a37.14,37.14,0,0,0,22.92,4.2c6.39-.88,14.5-4.08,17.38-9.78a7.22,7.22,0,0,0,.81-3.27v-4A7.8,7.8,0,0,0,1600.46,817.69Zm-19.28-15.81,34.64,20,4.25-2.45v-4l-8.65-5,19.95,2.47,5.25-3v-4l-26.25-3c.22-8.34.18-5.88.18-10.93l-5.51,3.18c0,5,0,2.44.1,11.68l-19.71-11.37-4.25,2.45Zm71.9,43.37c-25,16.53-63.61,19.34-93,11.6-14.2-3.75-30.15-11-39.28-22.59-10-12.72-9.38-26.7-.06-38.43,23-29,89.21-36,128.65-13.39l.05,0a55,55,0,0,1,16,13.27C1679.44,813.42,1672.29,832.57,1653.08,845.25Z" transform="translate(-0.18 144.63)"/><path class="cls-25" d="M1496,810.31A55.18,55.18,0,0,0,1512,823.6c27.1,15.56,67.43,17.29,97.42,6.82,11.54-4,23.63-10.63,31.22-20.2,4.42-5.58,7.21-11.92,7.23-19.18h0v20.72h0c0,16.78-15,29.19-30.33,36.17-28.9,13.17-69.8,13.18-98.74-.06-15.26-7-30.19-19.4-30.19-36.11V791.14h0C1488.68,798.32,1491.64,804.84,1496,810.31Z" transform="translate(-0.18 144.63)"/><polygon class="cls-26" points="1611.62 926.55 1611.62 930.56 1606.37 933.58 1606.37 929.59 1611.62 926.55"/><polygon class="cls-26" points="1606.37 929.59 1606.37 933.58 1586.42 931.11 1585.24 930.43 1585.24 926.96 1606.37 929.59"/><polygon class="cls-26" points="1595.07 936.11 1595.07 940.11 1590.82 942.57 1590.82 938.56 1595.07 936.11"/><polygon class="cls-26" points="1590.82 938.56 1590.82 942.57 1556.18 922.56 1556.18 918.55 1590.82 938.56"/><path class="cls-27" d="M1595.25,791.48l-4.25,2.45-34.63-20,4.24-2.45,19.71,11.38c.09,0,.06.93-.09-11.69l5.5-3.18-.28,10.93c2.13.19-7.39-.85,26.35,3l-5.25,3-21.13-2.63-.11,3.4C1585.48,785.84,1586.16,786.23,1595.25,791.48Z" transform="translate(-0.18 144.63)"/><path class="cls-28" d="M1575.65,793.74c-3.2-5.69-12.07-9.59-18.62-10.88-8.53-1.66-17.1-.16-23.21,3.37q-7.1,4.11-7.09,9.38v4c0,4.81,4.73,8.44,8.89,10.84a37.16,37.16,0,0,0,22.92,4.21c6.39-.88,14.5-4.09,17.38-9.79a7.18,7.18,0,0,0,.81-3.27v-4A7.89,7.89,0,0,0,1575.65,793.74Zm-19.28-15.81,34.63,20,4.25-2.46v-4l-8.65-5,20,2.47,5.25-3v-4l-26.25-3c.22-8.35.18-5.89.18-10.94l-5.5,3.18c0,5,0,2.45.09,11.69l-19.71-11.38-4.24,2.45Zm71.89,43.37c-25,16.54-63.61,19.34-93,11.6-14.2-3.74-30.15-11-39.28-22.59-10-12.71-9.38-26.7,0-38.43,22.94-29,89.2-36,128.65-13.39l0,0a55.07,55.07,0,0,1,16,13.27C1654.62,789.47,1647.47,808.62,1628.26,821.3Z" transform="translate(-0.18 144.63)"/><path class="cls-27" d="M1570.59,798.33c.16-3.77-3.74-6.66-7-8.55-9.37-5.42-19.42-5-25.8-1.28-3.25,1.87-4.92,4.14-5,6.77-.15,3.53,4.59,6.71,7.65,8.48,8.78,5.06,18.84,4.67,25.29,1C1568.2,803.26,1570.46,801.22,1570.59,798.33Zm6.14-.74c0,4-3.6,7.35-7.08,9.37-10,5.75-24.25,5.15-34-.52-4.17-2.41-8.89-6-8.89-10.83q0-5.28,7.09-9.38c9.58-5.54,23.5-5.53,34.52.84C1572.25,789.33,1576.73,793.06,1576.73,797.59Z" transform="translate(-0.18 144.63)"/><path class="cls-28" d="M1563.59,793.79q5.39,3.11,6.63,6.33c-2.31,6-16.67,11.2-29.81,3.63q-5.9-3.4-7.24-6.49C1535.56,791.06,1549.77,785.78,1563.59,793.79Z" transform="translate(-0.18 144.63)"/><path class="cls-26" d="M1570.58,797.68a5.78,5.78,0,0,1-.36,2.44q-1.24-3.23-6.63-6.33c-13.78-8-28-2.76-30.42,3.47a4.37,4.37,0,0,1-.41-2c.11-2.63,1.78-4.9,5-6.77,6.39-3.68,16.43-4.14,25.8,1.28Q1570.28,793.65,1570.58,797.68Z" transform="translate(-0.18 144.63)"/><path class="cls-26" d="M1535.62,806.44c9.7,5.62,24,6.31,34,.52,3.48-2,7.08-5.39,7.08-9.37v4a7.18,7.18,0,0,1-.81,3.27c-2.88,5.69-11,8.9-17.38,9.79a37.12,37.12,0,0,1-22.92-4.21c-4.16-2.4-8.89-6-8.89-10.84v-4C1526.73,800.4,1531.45,804,1535.62,806.44Z" transform="translate(-0.18 144.63)"/><polygon class="cls-8" points="1302.03 657.65 1380.48 610.18 1371.48 606.18 1292.04 652.15 1302.03 657.65"/><polygon class="cls-8" points="1258.06 630.66 1336.51 583.19 1327.51 579.2 1248.06 625.17 1258.06 630.66"/><polygon class="cls-21" points="1188.14 545.06 1194.37 591.82 1234.07 571.7 1188.14 545.06"/><path class="cls-21" d="M1170.66,240.66V371.75c3.5,2,79.08,45.33,79.08,45.33l29.48-16,2.09-130.28v-94Z" transform="translate(-0.18 144.63)"/><path class="cls-8" d="M1165.51,62.84h0c11.73,8.52,22.15,24.29,25.92,39.9q7.54,30.87,15.08,61.72l12.49-7.2q-7.05-28.9-14.12-57.81c-4.44-18.36-16.52-37.12-31.2-47.8h0Q1161.82,43,1150,34.33h0c-20.73-15.37-55.64-18.13-77-5.53h0q-26.6,15.37-53.2,30.72T966.51,90.24h0c-10.91,6.16-18.61,16.78-18,29.19.58,11.35,7.9,21.22,17,27.77,0,0,0,0,.05,0h0q11.86,8.66,23.71,17.33c11.6,8.43,22.11,24.13,25.92,39.9h0q9.57,39.13,19.13,78.3c0-.1.45-.11.53-.12a27.68,27.68,0,0,1,5.84.88c2.26.54,4,1.12,5.14.74,1.68-.55,2.29-3.17,1.87-5.12-.34-1.35-.66-2.69-1-4q-9-37-18.07-73.93c-4.45-18.41-16.56-37.16-31.2-47.8h0l-23.71-17.33h0c-6.85-4.92-12.84-12.78-11.09-21,1.2-5.59,5.79-10.06,10.75-12.87h0l53.22-30.73q26.61-15.36,53.21-30.73h0c16.21-9.55,45.07-7.79,61.91,4.73h0Z" transform="translate(-0.18 144.63)"/><path class="cls-8" d="M1082.47,273l-8.25,4.76q2.38,20.55,4.79,41.09h0q4.71,2.7,9.43,5.44Q1085.44,298.63,1082.47,273Z" transform="translate(-0.18 144.63)"/><path class="cls-8" d="M1098.8,409.18l-9.71-5.6a45.6,45.6,0,0,0,11.81,21.36Z" transform="translate(-0.18 144.63)"/><path class="cls-8" d="M1122.61,312q-13.86,8-27.71,16l16,9.24,11.71-6.76Z" transform="translate(-0.18 144.63)"/><path class="cls-8" d="M1095.1,381.41q-2.16-16.28-4.34-32.54l-7.73,4.46q1.77,15.15,3.53,30.3l9.57,5.53C1095.79,386.58,1095.45,384,1095.1,381.41Z" transform="translate(-0.18 144.63)"/><path class="cls-8" d="M1113.15,450.76h0a8.26,8.26,0,0,0,2,4.74c1.78,1.71,4.53,1.28,6.81.34,12.26-6.89,9-5,15.13-8.59L1110.66,432Zm68,11.86v1.21l7.36,4.24q.63,4.81,1.28,9.63-22-12.7-44-25.39l-9.93,5.74c-2.16,1.64-11.32,6.36-14,6.94a15.63,15.63,0,0,1-1.59.28c-8.4,1.09-14.72-4.47-15.85-13.35h0q-1.79-13.5-3.59-27l-2.1-15.76c3.19,1.84,6.37,3.69,9.55,5.51h0q.4,3,.79,5.95a22.88,22.88,0,0,0,3.1,2.18h0l33.58,19.4,5.1-3q4.38,2.52,8.73,5.05l-5.09,2.93Z" transform="translate(-0.18 144.63)"/><path class="cls-8" d="M1099,399.37c1.69.56,4.14-.63,5.54-1.66.72-.53,1.42-1.19,1.3-1.86,0-.4-.11-.78-.16-1.18q-3-22.71-6-45.45l-9.55-5.52c.23,1.73.45,3.44.68,5.17q2.17,16.28,4.34,32.54c.35,2.58.69,5.17,1,7.75s.7,5.2,1,7.81c0,0,0,.1,0,.14A2.73,2.73,0,0,0,1099,399.37Z" transform="translate(-0.18 144.63)"/><path class="cls-19" d="M1122.61,362.49v42l48.05,27.74v-42Z" transform="translate(-0.18 144.63)"/><path class="cls-19" d="M1122.61,330.49V344l48.05,27.74V240.66l-48.05-27.74V330.49Z" transform="translate(-0.18 144.63)"/><polygon class="cls-19" points="1122.43 357.55 1170.48 385.29 1281.13 321.41 1233.08 293.66 1218.82 301.9 1206.33 309.1 1122.43 357.55"/><polygon class="cls-19" points="1127.93 357.55 1233.08 296.84 1275.63 321.41 1170.48 382.12 1127.93 357.55"/><path class="cls-29" d="M1137.13,676.76h0l10.52-6.07a10.84,10.84,0,0,0,3.86-4c2.67-4.61,2.41-11.21,1.23-16.43l-11.7-6.76.17,10.44h0C1144.54,665.07,1142.38,673.44,1137.13,676.76Z" transform="translate(-0.18 144.63)"/><path class="cls-30" d="M1102.14,640.35c0,12.37,8.34,27.44,19,34.39,6.37,4.15,12,4.5,15.94,2,5.25-3.32,7.41-11.69,4.09-22.81l.15,8.61-1.61,1-36.27-20.93-.15-9.44A20.51,20.51,0,0,0,1102.14,640.35Z" transform="translate(-0.18 144.63)"/><path class="cls-21" d="M1143.52,631.86c1.44-1.56,3.8-3.32,5.91-3.23a3.88,3.88,0,0,1,1.75.5l0,0-36.27-20.94a4.6,4.6,0,0,0-4,.05c-.27.1-.54.23-.79.35-3.51,1.81-7.14,7.42-7.06,12.22v.85l.2,11.53.15,9.44,36.27,20.93-.36-21.81A15.2,15.2,0,0,1,1143.52,631.86Z" transform="translate(-0.18 144.63)"/><path class="cls-31" d="M1149.43,628.63c-2.11-.09-4.47,1.67-5.91,3.23a15.2,15.2,0,0,0-4.12,9.85l.36,21.81,1.61-1-.15-8.61h0l-.17-10.44-.06-4a9.1,9.1,0,0,1,.78-2.89c1.07-2.41,3.13-5,5.55-5.86a3.37,3.37,0,0,1,2.87.08s0,0,0,0l3,1.71a4.89,4.89,0,0,0-1.08-2.71,3.11,3.11,0,0,0-.9-.7A3.88,3.88,0,0,0,1149.43,628.63Z" transform="translate(-0.18 144.63)"/><path class="cls-21" d="M1170.66,390.23v42l10.5,6.05V412.82q-1.2-9-2.39-17.91Z" transform="translate(-0.18 144.63)"/><path class="cls-21" d="M1181.16,412.82v25.42l3.66,2.12h0Q1183,426.59,1181.16,412.82Z" transform="translate(-0.18 144.63)"/><path class="cls-21" d="M1243.28,552.19v9.69l36.27,20.94V560.69c-3.38-2.09-5.4-6.06-5.36-11.24v0l0-11.15-19.14-11a4.6,4.6,0,0,0-3.95.06,5.13,5.13,0,0,0-.76.33c-3.49,1.77-7.09,7.31-7.09,12.08v12.49Z" transform="translate(-0.18 144.63)"/><path class="cls-8" d="M1203.85,506.72c2.24,2.16,6.08.93,8.75-.63h0c4.16-2.39,9.26-5.34,13.18-7.61l-26.44-15.26q1.26,9.38,2.5,18.76h0A8.21,8.21,0,0,0,1203.85,506.72Zm40.49-7.62,29.92,17.27h0l0,10.09q-19.86-11.49-39.71-22.94L1217,513.65c-11.53,6.75-22.27,1.49-23.79-10.53h0l-3.39-25.41q-.65-4.81-1.28-9.63c-.34-2.56-.69-5.12-1-7.68q4.79,2.76,9.55,5.51c.35,2.57.69,5.12,1,7.69l45.23,26.11Z" transform="translate(-0.18 144.63)"/><path class="cls-29" d="M1287.53,589.93a10.91,10.91,0,0,0,3.71-3.72c2.89-4.74,2.57-11.7,1.3-17.08l-11.38-6.57v10.8c3.29,11.28,1,19.68-4.48,22.83h0l10.85-6.26Z" transform="translate(-0.18 144.63)"/><path class="cls-31" d="M1281.16,561.5a11.54,11.54,0,0,1-1.61-.81v22.13l1.61-.93V561.5Z" transform="translate(-0.18 144.63)"/><path class="cls-30" d="M1281.16,581.89l-1.61.93-36.27-20.94v-9.69a20.22,20.22,0,0,0-1.26,7.4c0,12.35,8.31,27.4,19,34.38,6.21,4.06,11.76,4.5,15.67,2.22,5.44-3.15,7.77-11.55,4.48-22.83Z" transform="translate(-0.18 144.63)"/><path class="cls-21" d="M1291.3,548.15l-8.36-4.83c0,2,0,4.08,0,6.12v.26a8.37,8.37,0,0,0,.22,1.85,10.63,10.63,0,0,1,5.07-3.64A4.29,4.29,0,0,1,1291.3,548.15Z" transform="translate(-0.18 144.63)"/><path class="cls-8" d="M1290.48,550a3.17,3.17,0,0,0-2.56-.31,8.63,8.63,0,0,0-4.24,3.1,1.49,1.49,0,0,0,.23.28,1.87,1.87,0,0,0,1.37.52c2,.15,4.51-1,6.21-2h0l.9-.52c-.64-.37-1.28-.73-1.92-1.11Z" transform="translate(-0.18 144.63)"/><path class="cls-8" d="M1290.44,728.91c-.08-4.79,3.55-10.41,7-12.22a8.08,8.08,0,0,1,.8-.35h0l-145.12-83.78-3-1.71s0,0,0,0a3.37,3.37,0,0,0-2.87-.08c-2.42.88-4.48,3.45-5.55,5.86a9.1,9.1,0,0,0-.78,2.89l.06,4,11.7,6.76,137.7,79.5Z" transform="translate(-0.18 144.63)"/><path class="cls-8" d="M1274.19,549.45v0l0-11.15q0-5.91,0-11.82l0-10.09c0-2,0-3.91,0-5.87l8.72,5c0,2,0,3.92,0,5.88l30.4,17.56,5.1-3a38.33,38.33,0,0,0,10.78,3.87l-7.14,4.12,39,22.54h0c2.67,1.57,6.52,2.79,8.74.63a8.24,8.24,0,0,0,2-4.72h0c.69-5.11,1.37-10.21,2.07-15.32.92-6.91,1.85-13.8,2.78-20.71h0l9.57-5.51q-1.72,12.69-3.42,25.39l-2.34,17.32h0c-1.55,12.12-12.39,17.17-23.78,10.5h0q-21.72-12.51-43.41-25.05l-12.26,7.07-5.26,3h0c-5.69,3.32-10.85,3.86-14.7,2.33a11.54,11.54,0,0,1-1.61-.81C1276.17,558.6,1274.15,554.63,1274.19,549.45Zm18.94,1.22,11.52-6.66L1283,531.49l0,11.83c0,2,0,4.08,0,6.12v.26a8.37,8.37,0,0,0,.22,1.85,3.43,3.43,0,0,0,.53,1.23,1.49,1.49,0,0,0,.23.28,1.87,1.87,0,0,0,1.37.52c2,.15,4.51-1,6.21-2h0l.9-.52Z" transform="translate(-0.18 144.63)"/><path class="cls-31" d="M1283.68,552.78a8.63,8.63,0,0,1,4.24-3.1,3.17,3.17,0,0,1,2.56.31h0c.64.38,1.28.74,1.92,1.11l.73-.42a4.26,4.26,0,0,0-1.78-2.49l0,0a4.29,4.29,0,0,0-3.08-.24,10.63,10.63,0,0,0-5.07,3.64A3.43,3.43,0,0,0,1283.68,552.78Z" transform="translate(-0.18 144.63)"/><path class="cls-8" d="M1297.76,221.86c-1.63,14.09-11.42,108.17-13,122.26l8,5c1.23-10.69,12-111.8,13.28-122.49Z" transform="translate(-0.18 144.63)"/><path class="cls-29" d="M1325,785.58h0q5.43-3.12,10.84-6.26c4.45-2.56,6-8,6-13.14a36.53,36.53,0,0,0-2.21-11.9,31.22,31.22,0,0,1-11.22-2.87h0l.14,8.45a36.88,36.88,0,0,1,2.46,12.58C1331,779.27,1328.52,783.56,1325,785.58Z" transform="translate(-0.18 144.63)"/><path class="cls-30" d="M1290.7,744.72c-2.53,13.39,7.75,33.14,21,40a17.4,17.4,0,0,0,7.73,2.21,10.82,10.82,0,0,0,5.57-1.38c3.53-2,6-6.31,6-13.13a36.88,36.88,0,0,0-2.46-12.58l.19,10.83-1.61,1-36.27-20.94Z" transform="translate(-0.18 144.63)"/><path class="cls-8" d="M1328.36,751.42a31.22,31.22,0,0,0,11.22,2.87c14.09.74,24.72-10.15,24.59-27.67v-1.06c.07-17.34-10.14-37.3-23.3-48.89h0L1154,510.93c-11-9.68-18.12-25.71-18.07-37.24h0V458.05c-2.16,1.64-11.32,6.36-14,6.94a15.63,15.63,0,0,1-1.59.28v8.4h0c-.07,16.2,9.16,36.44,23.31,48.9h0l186.9,165.73c10.77,9.5,18.13,25.44,18.06,37.25h0v1.08c.05,4.55-1.2,10.77-5.76,11.91a8.39,8.39,0,0,1-3,.14,14.61,14.61,0,0,1-3.41-.78l0,0a13,13,0,0,0-7.92,9.06,8,8,0,0,0-.22,1.95l0,2.53Z" transform="translate(-0.18 144.63)"/><path class="cls-31" d="M1339.88,738.69a3.92,3.92,0,0,0-1.38-1.45,3.77,3.77,0,0,0-.61-.29,4.93,4.93,0,0,0-3.54.38,11.35,11.35,0,0,0-4.65,4.12,14.61,14.61,0,0,0-3,8.41l.37,21.81,1.61-1-.19-10.83-.14-8.45,0-2.53a8,8,0,0,1,.22-1.95,13,13,0,0,1,7.92-9.06l0,0A14.61,14.61,0,0,0,1339.88,738.69Z" transform="translate(-0.18 144.63)"/><path class="cls-21" d="M1337.89,737a3.77,3.77,0,0,1,.61.29h0l-36.27-20.94a4.63,4.63,0,0,0-4,0h0a8.08,8.08,0,0,0-.8.35c-3.5,1.81-7.13,7.43-7,12.22v.85l.25,15,.1,6,36.27,20.94-.37-21.81a14.61,14.61,0,0,1,3-8.41,11.35,11.35,0,0,1,4.65-4.12A4.93,4.93,0,0,1,1337.89,737Z" transform="translate(-0.18 144.63)"/><path class="cls-8" d="M1379.75,337.16a2.47,2.47,0,0,1-.5-1.74.17.17,0,0,1,0-.07c.16-1.35.32-2.71.47-4.06-3.72-2.15-82.3-44-86-46.13v12l70,39c4.47-.06,13.86,2,18.25,2.6l.08-.54A2.93,2.93,0,0,1,1379.75,337.16Z" transform="translate(-0.18 144.63)"/><path class="cls-8" d="M1381.92,338.73a76.33,76.33,0,0,1,19.57,5.13c-4.49-2.61-9-5.21-13.51-7.82,0,.11,0,.2,0,.3h0c0,.13-.09.25-.28.38a5.18,5.18,0,0,1-.91.46,11.35,11.35,0,0,1-4.74,1Z" transform="translate(-0.18 144.63)"/><path class="cls-8" d="M1388,336q3.36-29.1,6.71-58.22l-8.24-4.75-6.72,58.22c-.15,1.35-.31,2.71-.47,4.06a.17.17,0,0,0,0,.07,2.47,2.47,0,0,0,.5,1.74,2.93,2.93,0,0,0,2.25,1,11.35,11.35,0,0,0,4.74-1,5.18,5.18,0,0,0,.91-.46c.19-.13.28-.25.28-.38h0C1388,336.24,1388,336.15,1388,336Z" transform="translate(-0.18 144.63)"/><path class="cls-8" d="M1424.06,475.07v5.57l7.78-4.5q.42-3,.82-6Z" transform="translate(-0.18 144.63)"/><path class="cls-8" d="M1430.59,647.84c0-4.77,3.6-10.3,7.09-12.08a6.51,6.51,0,0,1,.76-.34v0l-137.3-79.27-5.26,3h0c-5.69,3.32-10.85,3.86-14.7,2.33v1.06l11.38,6.57,138,79.71Z" transform="translate(-0.18 144.63)"/><path class="cls-8" d="M1453,445.23c-1.3,5.32-5.12,12.25-10.61,17.78q-.51,3.8-1,7.62,5.94-3.45,11.91-6.88h0a47.48,47.48,0,0,0,8.19-16.39h0q4.41-17.62,8.8-35.25c-3.51,2-7,4-10.52,6.06Z" transform="translate(-0.18 144.63)"/><path class="cls-29" d="M1475.7,698.57c4.4-2.51,6-8,6-13.14a34.48,34.48,0,0,0-1.24-8.8c-.31-1.11-.65-2.21-1-3.28a31.63,31.63,0,0,1-10.94-2.86v8.85a36.82,36.82,0,0,1,2.37,12.35c0,6.82-2.44,11.11-6,13.13v0q5.43-3.12,10.84-6.26Z" transform="translate(-0.18 144.63)"/><path class="cls-30" d="M1430.59,663.91c-2.58,13.49,7.84,33.38,21.14,40.17a17.21,17.21,0,0,0,7.69,2.13,10.8,10.8,0,0,0,5.44-1.39c3.52-2,6-6.31,6-13.13a36.82,36.82,0,0,0-2.37-12.35V690l-1.61.92L1430.59,670Z" transform="translate(-0.18 144.63)"/><path class="cls-8" d="M1385.16,531c24.3,21.55,61.22,54.82,85.54,76.38,10.77,9.49,18.13,25.44,18.06,37.24h0v1.08c0,4.59-1.22,10.77-5.76,11.91a8.7,8.7,0,0,1-3,.15,16.45,16.45,0,0,1-3.49-.81v0a13.57,13.57,0,0,0-6.37,5.4,11.06,11.06,0,0,0-1.7,5.46v2.64a31.63,31.63,0,0,0,10.94,2.86c.37,0,.72,0,1.09,0,13.69.33,24-10.44,23.84-27.69v-1.06c.09-17.58-10.37-37.49-23.3-48.89h0l-56.39-50c-4.29,1.86-9.77,1.43-15.39-1.84l0,0h0c-2-1.12-17.07-24.24-19-25.37l-3.8,2.39C1384.54,521.72,1387,530.34,1385.16,531Z" transform="translate(-0.18 144.63)"/><path class="cls-8" d="M1472.12,389.18a13.57,13.57,0,0,0,3.58-1c.24-.12.67-.34.73-.59h0l.09-.37q6.78-27.15,13.55-54.28c-2.63-1.52-5.24-3-7.87-4.54q-6.78,27.13-13.55,54.27c-.28,1.14-.57,2.27-.85,3.42h0a2.4,2.4,0,0,0,2,3.12A6.29,6.29,0,0,0,1472.12,389.18Z" transform="translate(-0.18 144.63)"/><path class="cls-8" d="M1475.7,388.15a13.57,13.57,0,0,1-3.58,1,6.29,6.29,0,0,1-2.33,0,2.4,2.4,0,0,1-2-3.12h0c.28-1.15.57-2.28.85-3.42L1413.87,351c6.87,5.53-113.92-69.6-114.16-62.84,0,1.8-2,10.2-2,12,13,7.5,152.29,90.2,165.26,97.68q8-4.6,16-9.24l-2.45-1.41-.09.37h0C1476.37,387.81,1475.94,388,1475.7,388.15Z" transform="translate(-0.18 144.63)"/><path class="cls-31" d="M1474.54,656.4a11.12,11.12,0,0,0-4.64,4.07,14.72,14.72,0,0,0-3.06,8.32V691l1.61-.92V667.85a11.06,11.06,0,0,1,1.7-5.46,13.57,13.57,0,0,1,6.37-5.4v0a16.45,16.45,0,0,0,3.49.81,3.69,3.69,0,0,0-1.36-1.44,2.55,2.55,0,0,0-.6-.29A4.82,4.82,0,0,0,1474.54,656.4Z" transform="translate(-0.18 144.63)"/><path class="cls-21" d="M1478.66,656.32l-36.27-21a4.63,4.63,0,0,0-4,0,6.51,6.51,0,0,0-.76.34c-3.49,1.78-7.09,7.31-7.09,12.08V670L1466.84,691V668.79a14.72,14.72,0,0,1,3.06-8.32,11.12,11.12,0,0,1,4.64-4.07,4.82,4.82,0,0,1,3.52-.35,2.55,2.55,0,0,1,.6.29Z" transform="translate(-0.18 144.63)"/><path class="cls-8" d="M1479,407.07l9.49,5.48c.53-3.95,1.07-7.92,1.6-11.87Z" transform="translate(-0.18 144.63)"/><path class="cls-31" d="M1479.39,673.35c.38,1.07.72,2.17,1,3.28h0l0-3.24C1480.11,673.39,1479.76,673.37,1479.39,673.35Z" transform="translate(-0.18 144.63)"/><path class="cls-8" d="M1485.72,449.52c2,1.22,4.73,2.22,6.13.4a3.06,3.06,0,0,0,.58-1.31,3.27,3.27,0,0,0,0-.35c.34-2.57.7-5.15,1-7.72q1.57-11.62,3.13-23.26l2.31-17.15c.23-1.67.46-3.32.67-5l-9.56,5.53c-.53,3.95-1.07,7.92-1.6,11.87q-2.25,16.76-4.51,33.5l-.18,1.35h0a1.87,1.87,0,0,0,.76,1.23A8.21,8.21,0,0,0,1485.72,449.52Z" transform="translate(-0.18 144.63)"/><path class="cls-32" d="M1347.06,257.59l-20.86,12c0-5,0-10,0-15.07C1333.12,255.55,1340.11,256.55,1347.06,257.59Z" transform="translate(-0.18 144.63)"/><path class="cls-33" d="M1325.85,286.08a3.84,3.84,0,0,1,1.78-.78,2.7,2.7,0,0,1,2.39.81c.92,1.05.93,2.94.65,4.2A18,18,0,0,0,1325.85,286.08Z" transform="translate(-0.18 144.63)"/><path class="cls-34" d="M1320.93,242.48c3,6.87,4.57,10.57,5.24,12.07,0,5,0,10.05,0,15.07-2.2,1.29-4.4,2.55-6.59,3.81C1320.52,252,1320.63,250.22,1320.93,242.48Z" transform="translate(-0.18 144.63)"/><path class="cls-33" d="M1325.14,296.75a2.49,2.49,0,0,1-2.62-1.42,4.93,4.93,0,0,0,1.19-.42A10,10,0,0,1,1325.14,296.75Z" transform="translate(-0.18 144.63)"/><path class="cls-33" d="M1322.52,295.33a4.43,4.43,0,0,1-.42-1.88,8.78,8.78,0,0,1,1.61,1.46A4.93,4.93,0,0,1,1322.52,295.33Z" transform="translate(-0.18 144.63)"/><path class="cls-35" d="M1321.74,287.82c2.8-5.14,8.85-8,11-2.55.77,2.06.18,5-.61,7l0,0a18.43,18.43,0,0,0-1.39-2c.54-2.41-.11-5-2.62-5.07a1,1,0,0,0-.42.06,3.84,3.84,0,0,0-1.78.78,9.15,9.15,0,0,0-3.75,7.4c.13,2.57,1.64,3.48,3,3.27a19.3,19.3,0,0,1,1.19,2.33C1320.61,301.68,1317.71,295.3,1321.74,287.82Z" transform="translate(-0.18 144.63)"/><path class="cls-32" d="M1320.93,242.48c-.3,7.77-.41,9.68-1.32,31q-42.4,24.45-84.8,48.93l-5.2-12.06-20.9-3Z" transform="translate(-0.18 144.63)"/><path class="cls-36" d="M1319.9,294.71c0,1.86.64,3.78,2.32,4.56-.93-.45-1.84-.94-2.78-1.39a3.5,3.5,0,0,1-1-.84c-2.39-2.92-1.17-7.59.87-11a10.38,10.38,0,0,1,4.21-4.3,5,5,0,0,1,4.43-.39c.84.39,1.61.84,2.45,1.26-2-.83-6,.43-8.63,5.24A13.68,13.68,0,0,0,1319.9,294.71Z" transform="translate(-0.18 144.63)"/><path class="cls-33" d="M1273.07,316.44a2.88,2.88,0,0,1,2.33.75c.93,1,.95,2.82.68,4.17a21.74,21.74,0,0,0-1.75-1.84c-1.41-1.26-.59-.32-1-2.2A3.79,3.79,0,0,0,1273.07,316.44Z" transform="translate(-0.18 144.63)"/><path class="cls-33" d="M1274,319.53a31.42,31.42,0,0,0-2.74-2.34,3.28,3.28,0,0,1,1.84-.75A9.28,9.28,0,0,1,1274,319.53Z" transform="translate(-0.18 144.63)"/><path class="cls-37" d="M1271.23,317.19a20.62,20.62,0,0,1,6,5.66c.1.13.17.25.26.38s0,0,0,0c6.94,9.34,10.32,29.81,18,34.53,1.86,1.15,3.51,1.1,5.59.78a22,22,0,0,0,5.6-2.23,0,0,0,0,1,0,0,33.7,33.7,0,0,0,4.66-3.17c19.14-15.09,22.24-50.78,10.64-59.7a9.25,9.25,0,0,1,3.29-7.05c.56-.42.36-.36.68-.19,16.37,9.9,15.33,52.3-8.47,72.6-6.23,5.31-15.37,10.11-23.19,7.5-15.54-4.86-16.73-34.22-26.94-41.75A9.47,9.47,0,0,1,1271.23,317.19Z" transform="translate(-0.18 144.63)"/><path class="cls-33" d="M1270.68,327.86a2.84,2.84,0,0,1-2.82-1.42,3,3,0,0,0,1.3-.46A20.5,20.5,0,0,1,1270.68,327.86Z" transform="translate(-0.18 144.63)"/><path class="cls-33" d="M1269.16,326a3,3,0,0,1-1.3.46,4.09,4.09,0,0,1-.39-1.88A10.42,10.42,0,0,1,1269.16,326Z" transform="translate(-0.18 144.63)"/><path class="cls-32" d="M1354.24,256.42c-74.92,43.23-95.33,55-121.4,70.11l7.24,153.52L1361.48,410Zm-30.53,96.08a45.17,45.17,0,0,1-12.38,10.77c-.33,0-4.79,3.08-10.29,3.69-18.73,2-21.83-25-29-36.93a5.21,5.21,0,0,1-4,.55,2.12,2.12,0,0,1-.45-.23l0,0c-.32-.17-1.32-.71-2.68-1.39q-2.43-1.26-2.33-4.66a13.9,13.9,0,0,1,5.66-11.06c1.58-1.23,3.33-1.74,5.14-.84l2.78,1.43,0,.09c2.92,1.06,2.76,6.15,1.45,9.28,0,0,0,0,0,0,5.21,7,8.4,20.32,13.26,29.07,3,5.11,6.19,7.72,11.8,5.85,4.7-1.34,12.33-6.55,17.56-14.81,9.48-14.76,10.7-34.37,6.18-44.3-2.92,1.32-3.77.31-6.89-1.2a3.5,3.5,0,0,1-1-.84c-2.39-2.92-1.17-7.59.87-11a10.38,10.38,0,0,1,4.21-4.3,5,5,0,0,1,4.43-.39c.84.39,1.61.84,2.45,1.26a4.69,4.69,0,0,1,2.33,2.69c.77,2.06.18,5-.61,7l0,0a3.52,3.52,0,0,1,.29.42C1341.18,307.22,1337.43,336,1323.71,352.5Z" transform="translate(-0.18 144.63)"/><path class="cls-35" d="M1273,313.69a4.76,4.76,0,0,1,4,.81c2,1.83,1.67,6.05.55,8.73a13.72,13.72,0,0,0-1.45-1.87c.27-1.38.23-3.21-.68-4.17a2.88,2.88,0,0,0-2.33-.75,4.23,4.23,0,0,0-2.43,1.2c-3.08,2.74-3.68,7.08-2.78,8.8a2.82,2.82,0,0,0,2.82,1.42,16.4,16.4,0,0,1,1.39,2.17c-4.66,2.51-8.09-1.32-6.57-6.83C1266.81,317.71,1270.48,314.27,1273,313.69Z" transform="translate(-0.18 144.63)"/><path class="cls-36" d="M1269.48,315.89a14.71,14.71,0,0,0-4,7.31,8.53,8.53,0,0,0,0,4.14,5,5,0,0,0,2.1,3l0,0c-.32-.17-1.38-.74-2.68-1.39q-2.43-1.26-2.33-4.66a13.9,13.9,0,0,1,5.66-11.06c1.58-1.23,3.33-1.74,5.14-.84l2.78,1.43,0,.09a5.17,5.17,0,0,0-3.11-.26A7.32,7.32,0,0,0,1269.48,315.89Z" transform="translate(-0.18 144.63)"/><polygon class="cls-34" points="1232.66 471.16 1239.9 624.68 1226.38 606.05 1226.38 456.68 1232.66 471.16"/><path class="cls-38" d="M1226.57,312l-25-3.62,121.4-70.08,6.24,14.46,25.06,3.62c-74.92,43.23-95.33,55-121.4,70.11Zm-17.86-4.75,20.9,3,5.2,12.06c19.76-11.42,99.86-57.63,112.25-64.77-7-1-13.94-2-20.89-3-.66-1.46-1.66-3.79-5.24-12.07Z" transform="translate(-0.18 144.63)"/><polygon class="cls-32" points="1226.38 456.68 1226.38 606.05 1194.11 598.25 1201.35 453.05 1226.38 456.68"/><path class="cls-39" d="M1403.54,386c-21.29-2.48-43.52-6-43.52-6l-5.78-123.59s-55.76,32.4-76.16,43.81c-8.41,4.7-16.47,10.18-25.76,13.46.71-1.77,8.65-6.43,8.65-6.43l58.64-33.83,6.59-3.81s-4.83-25.94-5.27-27.14l-112.22,64.81c1.09-.24,20,4.17,26.1,15.07,4.93,8.78,3.71,28,1.93,61.3a7.18,7.18,0,0,1-8.27,6.71c-6.68-1.07-6.36,4.33-6.36,4.33l4.46,1.35,12.33,54.27,1.18,29.73s59.11,10.57,77.69,9.78c12-.49,23.15-3.72,33.2-10.49,5.13-3.5,9.2-7.75,9.38-14.47,5.8-3.37,11.42-6.73,17.08-10,13.5-7.7,26.07-17.35,42-20.09a15.82,15.82,0,0,0,3.06-1.11c2.92-1.06,5.13-2.52,6.24-5.89a99.56,99.56,0,0,0,1-10A29.79,29.79,0,0,0,1403.54,386ZM1275.42,481.2c4.78-1.95,21.11-3.15,32.35-1.95C1297.46,483.28,1287,485.93,1275.42,481.2Zm55.9-150.43a28.12,28.12,0,0,1-.8-4.29c-.22-10.09-.93-20.09-3.94-29.83-.93-3-.71-5.8,2.3-7.83a37.15,37.15,0,0,1,5.37,8C1336.11,308.55,1336.1,319.18,1331.32,330.77Z" transform="translate(-0.18 144.63)"/><path class="cls-40" d="M1247.7,314.11h0c-2.87,1.66-2.71,1.58-2.73,1.57C1245.83,313.1,1246.89,311.53,1247.7,314.11Z" transform="translate(-0.18 144.63)"/><path class="cls-41" d="M1242.69,396.58a1.42,1.42,0,0,1-.29.65,1.34,1.34,0,0,1-1.24.45c-20-3.1-18.81-2.88-19.05-3a1,1,0,0,1-.6-.6c-.86-3.46-1.84-16-2.08-19.62-1.14-16.91-1-34.6,1.88-51.37.54-3.15,1.84-10,3.32-12.92.54-1.06,1.26-1.93,2.43-1.75,20.51,3.18,19.13,2.81,19.8,3.43a4.66,4.66,0,0,1,1,2.13l-.19.11c-1.1-3.51-2.55.61-3.51,4.18A138.81,138.81,0,0,0,1241,337C1238.07,365.44,1242.45,397.36,1242.69,396.58Z" transform="translate(-0.18 144.63)"/><polygon class="cls-16" points="1426.01 482.43 1426.01 504.61 1414.48 493.5 1426.01 482.43"/><path class="cls-42" d="M1420.55,339.65c-.73.7-8.86,8.5-9.59,9.22,0,3.09,0,6.17,0,9.26h-118.5c0-3.09,0-6.17,0-9.26-3.19-3.08-6.39-6.17-9.59-9.22Z" transform="translate(-0.18 144.63)"/><path class="cls-16" d="M1420.55,358.13H1411c0-3.09,0-6.17,0-9.26Z" transform="translate(-0.18 144.63)"/><path class="cls-43" d="M1391.36,378.48c0-.87.06-1.24.06-1.85,0-3.33.15-3.66-.23-4.48a3,3,0,0,0-.89-1.15C1394,372.74,1394,376.51,1391.36,378.48Z" transform="translate(-0.18 144.63)"/><path class="cls-44" d="M1379.81,375c0-4,5.16-8.25,10.91-6.31,3.38,1.13,5.15,3.62,5.21,6.37,0,3-2.38,5.32-4.71,6.22,0-.1.14-1.83.14-2.75a4.68,4.68,0,0,0,1.54-1.87c1.7-4-3.39-7.46-7.37-5.67h0c-3.48,1.74-3.94,5.34-1.32,7.38,0,.28-.06,1.88-.14,2.74A6.83,6.83,0,0,1,1379.81,375Z" transform="translate(-0.18 144.63)"/><path class="cls-45" d="M1384.32,368.89c-2.44,1.13-4.48,3.54-4.51,6.06v-1.71a6.78,6.78,0,0,1,2.66-5.1,9.18,9.18,0,0,1,10.85.05,6.8,6.8,0,0,1,2.61,5V375C1395.8,369.54,1389.05,366.73,1384.32,368.89Z" transform="translate(-0.18 144.63)"/><path class="cls-42" d="M1277.32,360V494.6h148.87V360Zm118.61,15c0,3-2.38,5.32-4.71,6.22-.78,14-4.77,29.51-15.51,38.25-8.29,6.63-19,8.3-29.38,6.31-20.57-4.38-27.58-23.74-28.83-44.92-2.29-.9-4.66-3.24-4.66-6.2v-1.79a6.91,6.91,0,0,1,2.64-5.05,9.23,9.23,0,0,1,10.88,0,6.87,6.87,0,0,1,2.61,5.05v1.79a6.84,6.84,0,0,1-4.29,6.06,77.45,77.45,0,0,0,1.85,13.63c2.33,10.24,7.79,20.28,17.8,23.47,6.3,2.28,15.75,2.26,22.69-1.21,10.06-5,14.36-16.56,16.18-27.7,0-.29.84-5.74.84-7.86a6.84,6.84,0,0,1-4.23-6v-1.79a6.78,6.78,0,0,1,2.66-5.1,9.2,9.2,0,0,1,10.85.05,6.8,6.8,0,0,1,2.61,5Z" transform="translate(-0.18 144.63)"/><path class="cls-43" d="M1324.48,373a3,3,0,0,0-1.23-2.38,4.94,4.94,0,0,1,3,4.09,4.37,4.37,0,0,1-1.71,3.34C1324.54,377.63,1324.48,373.35,1324.48,373Z" transform="translate(-0.18 144.63)"/><path class="cls-46" d="M1384.27,376.44v-.23a1.58,1.58,0,0,1,0,.37C1384.24,377.89,1384.23,376.76,1384.27,376.44Zm-66.91-.17c0-3.38-.16-3.62.22-4.46a3.32,3.32,0,0,1,.82-1.12,5.69,5.69,0,0,1,4.85-.11,2.94,2.94,0,0,1,1.23,2.44,91.32,91.32,0,0,0,2,21.34c3.24,14.28,11.31,24.38,25.82,25,15,.88,27-7,30.85-30.42,0-.34.71-4.69.84-7.8,0-.24.14-1.94.14-2.8a4.23,4.23,0,0,1-1.68-3.34c0-2.82,3.68-5.53,7.37-4.15l.43.17a3,3,0,0,1,.89,1.15c.39.84.23,1.17.23,4.48,0,7.17-1.38,17.67-3.87,24.65-4.76,14.28-14.56,23.87-29.67,25.13C1329,428.77,1317.36,404.91,1317.36,376.27Z" transform="translate(-0.18 144.63)"/><path class="cls-43" d="M1318.4,370.69a3.1,3.1,0,0,0-1.07,2.19c0,1.65,0,3.64.08,5.21h0C1314.77,376.16,1314.84,372.42,1318.4,370.69Z" transform="translate(-0.18 144.63)"/><path class="cls-44" d="M1312.84,374.67c.08-3.14,2.33-5.44,5.28-6.42,6-1.83,10.85,2.49,10.85,6.42a6.85,6.85,0,0,1-4.29,6.06c0-.59-.06-1.24-.09-1.83,0-1.32-.26-.51.68-1.57a4.36,4.36,0,0,0,1-2.66,5,5,0,0,0-3-4.09c-4-1.82-9,1.74-7.38,5.63a4.51,4.51,0,0,0,1.52,1.88h0c0,2.06.09,2.48.09,2.78C1315.18,380,1312.84,377.61,1312.84,374.67Z" transform="translate(-0.18 144.63)"/><path class="cls-45" d="M1312.84,372.88a6.91,6.91,0,0,1,2.64-5.05,8.52,8.52,0,0,1,5.44-1.77c5,0,8,3.53,8,6.82v1.79c0-2.5-2-5-4.43-6.08-4.81-2.28-11.57.63-11.7,6.08Z" transform="translate(-0.18 144.63)"/><path class="cls-16" d="M1292.51,348.87c0,3.09,0,6.17,0,9.26h-9.57C1293.32,348.05,1291.28,350.1,1292.51,348.87Z" transform="translate(-0.18 144.63)"/><polygon class="cls-16" points="1288.63 493.5 1277.13 504.61 1277.13 482.43 1288.63 493.5"/><path class="cls-47" d="M1282.92,358.13h137.63l-9.59-9.26c.73-.72,8.86-8.52,9.59-9.22H1282.92c3.2,3.05,6.4,6.14,9.59,9.22C1291.2,350.19,1293.52,347.87,1282.92,358.13Zm-5.6,1.85,11.49-11.11-11.49-11.07h148.87l-11.53,11.07L1426.19,360Z" transform="translate(-0.18 144.63)"/><g class="cls-48"><path class="cls-49" d="M1277.33,436.41c0-1,0-13.63,0-28.27v31.8C1277.33,438.75,1277.29,437.6,1277.33,436.41Z" transform="translate(-0.18 144.63)"/></g><path class="cls-5" d="M1484.59,483a119.73,119.73,0,0,0,5.14-15.66c-9.57-.53,9.22.54,0,0-6.5-.38-13.34.39-18.3-5.49-.65-.81-2.07-1.12-3.23-1.39-4.15-.92-8.26-2.22-12.49-2.53-7.57-.54-15.22-.39-22.83-.62-1.81,0-7-1-7-1s.81-85.52.31-96.39H1277.32s0,75.46,0,76.43c0,1.19,0,2.34,0,3.53,0,3.19.23,6.38,0,9.69v23.1c.08,2.38,0,4.76,0,7.15v7.57a74.19,74.19,0,0,0,.58,8.76c3.11.12,5.92.27,8.72.27,35.48,0,70.91-.08,106.39,0,23,.08,46,0,69-2.35a16.47,16.47,0,0,1,3.73.54c-4.61,2.89-8.65,4-15.26,4.08-33.75.61-37,.34-40.66.8-.7.08-1.27,1-2.08,1.62,2.42,2.11,4.84,1.42,7.11,1.42q15.33.12,30.71,0a106.26,106.26,0,0,0,12.11-.54c5.88-.77,12.07-1.42,16.41-6a8,8,0,0,1,6.19-2.57c32.78-1.54-10.69,1.46,0,0C1476.47,489.75,1487.59,486.07,1484.59,483ZM1313.38,371.53c5.27-6.35,8.92-6.54,14.84-.66C1322.76,368.22,1318.53,368.26,1313.38,371.53Zm78.07,7.64c-2.08,8-3.92,16.15-6.42,24-2.19,6.84-5.84,13-11.92,17.25a27.17,27.17,0,0,1-18.52,5.27c.34-5.15.3-5.34,4.57-5.84,9.38-1.12,15.91-6.19,19.64-14.53a89.79,89.79,0,0,0,5-16.22c.88-3.88.88-8,1.31-12,.07-.69,0-1.69.38-2,1-.88,2.23-2,3.31-2s2.23,1.46,2.72,2.54A5.94,5.94,0,0,1,1391.45,379.17Zm-8.27-9.68c3.81-3.61,6.5-3.65,10.92,0Zm63.42,95.24c-6.19,0-12.72.93-19.87-2.46,13.07-2.38,30.79-1.11,39,2.77C1458.86,467.23,1452.71,464.73,1446.6,464.73Z" transform="translate(-0.18 144.63)"/><path class="cls-8" d="M1187.68,450.58c1.69.56,4.14-.63,5.54-1.66.53-.4,1.31-1.05,1.33-1.71v0l-.18-1.31q-3-22.72-6-45.45l-9.55-5.52q1.2,9,2.39,17.91,1.83,13.77,3.67,27.54l1.05,7.88v0A2.76,2.76,0,0,0,1187.68,450.58Z" transform="translate(-0.18 144.63)"/><path class="cls-8" d="M1283.05,498.35v-1.28q0-10.17,0-20.35,0-10.77.05-21.54l-8.73-5q0,15.83-.08,31.64c0,3.41,0,6.84,0,10.26,0,2.31,0,4.63,0,6.94h0a3.08,3.08,0,0,0,.29,1.33c.78,1.6,2.54,1.71,4.23,1.22,1.41-.42,4.22-1.84,4.22-3.17Z" transform="translate(-0.18 144.63)"/><path class="cls-8" d="M1482.21,328.36c2.63,1.5,5.24,3,7.87,4.54l37.25,21.5h0a9.59,9.59,0,0,1,2.73,2.21c.53.68.47.87.47.91a.33.33,0,0,1,0,.15,4.75,4.75,0,0,1-1.28,1.65,11.72,11.72,0,0,1-1.9,1.34h0L1479,388.59q-8,4.62-16,9.24l-38.91,22.47-71.21,41.12h0c-6.88,4.05-19.78,4.15-26.85,0h0l-10.7-6.18-72-41.55-62.14-35.88-10.5-6.06L1122.61,344l-11.71-6.76-16-9.24h0c-2.15-1.25-4.3-2.5-6.45-3.73q-4.73-2.73-9.43-5.44h0L1046.47,300h0a9.42,9.42,0,0,1-2.73-2.21c-.53-.67-.48-.87-.48-.91a.53.53,0,0,1,0-.15,4.64,4.64,0,0,1,1.28-1.65,11.9,11.9,0,0,1,1.9-1.34h0l27.75-16,8.25-4.76,40.14-23.18V231.32l-75.88,43.81c.33,1.35.65,2.69,1,4,.42,1.95-.19,4.57-1.87,5.12-1.14.38-2.88-.2-5.14-.74a27.68,27.68,0,0,0-5.84-.88c-.08,0-.54,0-.53.12-4.25,3.59-7.11,8.53-7.11,14.11,0,7.3,4.82,13.37,11.23,17h0l40.42,23.33c3.72,2.15,7.46,4.31,11.19,6.45l9.55,5.52,23,13.27,48.05,27.74,8.11,4.68,9.55,5.52,55,31.74,31.12,18,8.73,5,18.63,10.75,13.48,7.79,2.68,1.55h0c12,7,31.1,6.92,42.9,0h0L1385.6,461l9.55-5.51,28.91-16.69h0q6.95-4,13.9-8h0l9.56-5.52,12.27-7.09c3.5-2,7-4,10.52-6.06h0c2.89-1.66,5.78-3.34,8.67-5l11.09-6.39,9.56-5.53,35.68-20.6h0c6.33-3.59,11.22-9.65,11.22-17s-4.8-13.37-11.22-17h0q-127-73.33-254-146.65v18.49l16.45,9.49,8.24,4.77,80.45,46.44,8.24,4.75Z" transform="translate(-0.18 144.63)"/><path class="cls-8" d="M1491.85,449.92c-1.4,1.82-4.17.82-6.13-.4a8.21,8.21,0,0,1-1.17-.89,1.87,1.87,0,0,1-.76-1.23h0l.18-1.35-30.64,17.69h0q-6,3.44-11.91,6.88c-.36,2.64-.71,5.3-1.07,7.95a3.06,3.06,0,0,1-.61,1.43c-1.4,1.82-4.16.81-6.12-.4a7.84,7.84,0,0,1-1.17-.89,1.86,1.86,0,0,1-.76-1.24h0c.06-.45.12-.89.17-1.34l-7.78,4.5-35,20.21q-.52,3.86-1,7.71h0a1.43,1.43,0,0,1-.06.35,3.06,3.06,0,0,1-.58,1.33c-1.4,1.8-4.19.82-6.12-.41-.69-.43-1.94-1.34-1.94-2.15,0,0,0-.07,0-.1,0-.41.11-.81.16-1.22l-26.71,15.43h0c-6.86,4-19.75,4.18-26.85,0h0l-10.62-6.12-32.21-18.61v1.28h0c0,1.33-2.81,2.75-4.22,3.17-1.69.49-3.45.38-4.23-1.22a3.08,3.08,0,0,1-.29-1.33h0c0-2.31,0-4.63,0-6.94q-4.44-2.58-8.87-5.12-11.09-6.41-22.15-12.79-24.46-14.13-48.93-28.25l.18,1.31v0c0,.66-.8,1.31-1.33,1.71-1.4,1-3.85,2.22-5.54,1.66a2.76,2.76,0,0,1-1.8-2.3v0l-1.05-7.88h0l-3.66-2.12-10.5-6.05-48.05-27.74c-5.64-3.27-11.29-6.51-16.93-9.78h0c0,.4.11.78.16,1.18.12.67-.58,1.33-1.3,1.86-1.4,1-3.85,2.22-5.54,1.66a2.73,2.73,0,0,1-1.8-2.26s0-.09,0-.14c-.34-2.61-.69-5.2-1-7.81l-9.57-5.53-22.56-13h0a9.59,9.59,0,0,1-2.73-2.21c-.52-.68-.47-.88-.47-.92a.3.3,0,0,1,0-.14,4.45,4.45,0,0,1,1.29-1.65,10.15,10.15,0,0,1,1.89-1.34h0l19-11,7.73-4.46c-.23-1.73-.45-3.44-.68-5.17-3.73-2.14-7.47-4.3-11.19-6.45L1056,350.46c-6.31,3.59-11.22,9.65-11.22,17s4.81,13.35,11.2,17h0l33.08,19.1,9.71,5.6c3.19,1.84,6.37,3.69,9.55,5.51h0l42.58,24.58q4.38,2.52,8.73,5.05l21.5,12.4,6.33,3.66q4.79,2.76,9.55,5.51l46.26,26.71,6.14,3.55,24.84,14.34,8.72,5,34.85,20.12,0,0,.62.35a38.33,38.33,0,0,0,10.78,3.87,48.92,48.92,0,0,0,7.52.94c8.56.42,17.38-1.28,24-5.16l0,0,16-9.23h0l9.57-5.51,37.71-21.77,5.09-2.94q4.78-2.78,9.56-5.51h0q21.27-12.3,42.56-24.57,4.77-2.76,9.55-5.51,13.47-7.8,27-15.57h0c6.33-3.59,11.23-9.65,11.23-17s-4.81-13.36-11.23-17h0L1499,400.13l-2.31,17.15q6.58,3.78,13.14,7.58h0a9.68,9.68,0,0,1,2.72,2.21c.53.67.48.88.49.91a.47.47,0,0,1,0,.15,4.55,4.55,0,0,1-1.28,1.65,11.55,11.55,0,0,1-1.9,1.34h0l-16.27,9.4c-.34,2.57-.7,5.15-1,7.72a3.27,3.27,0,0,1,0,.35A3.06,3.06,0,0,1,1491.85,449.92Z" transform="translate(-0.18 144.63)"/><path class="cls-8" d="M1381.25,509.84c1.93,1.23,4.72,2.21,6.12.41a3.06,3.06,0,0,0,.58-1.33c0-.12,0-.24.06-.35h0q.51-3.85,1-7.71,3-22.69,6.1-45.37L1385.6,461q-3.07,22.69-6.12,45.38c0,.41-.11.81-.16,1.22,0,0,0,.07,0,.1C1379.31,508.5,1380.56,509.41,1381.25,509.84Z" transform="translate(-0.18 144.63)"/><path class="cls-8" d="M1431.68,477.48a1.86,1.86,0,0,0,.76,1.24,7.84,7.84,0,0,0,1.17.89c2,1.21,4.72,2.22,6.12.4a3.06,3.06,0,0,0,.61-1.43c.36-2.65.71-5.31,1.07-7.95s.68-5.09,1-7.62q2.55-18.9,5.09-37.77l-9.56,5.52h0q-2.65,19.67-5.3,39.34-.4,3-.82,6c0,.45-.11.89-.17,1.34Z" transform="translate(-0.18 144.63)"/><path class="cls-8" d="M1409.23,543.91c5.62,3.27,11.1,3.7,15.39,1.84s7.55-6.23,8.33-12.36v0q2.27-16.68,4.5-33.34l1.26-9.35q-4.79,2.73-9.56,5.51-2.43,18-4.85,36v0a8.09,8.09,0,0,1-2,4.7c-2.23,2.16-6.07.95-8.75-.61h0c-.47-.28-22.91-17.53-23.39-17.81-2.68,1.94,16.3,20.58,13.17,22,1.94,1.14,3.9,2.26,5.85,3.38h0Z" transform="translate(-0.18 144.63)"/><path class="cls-8" d="M1438.71,490.68l-1.26,9.35,23.83,13.77h0c11.39,6.66,22.22,1.63,23.78-10.5h0q2.88-21.35,5.75-42.7-4.78,2.75-9.55,5.51l-4.86,36h0a8.09,8.09,0,0,1-2,4.7c-2.23,2.16-6.07,1-8.75-.61h0Z" transform="translate(-0.18 144.63)"/><path class="cls-21" d="M1123.28,998.14v-4.35c89.13-51.44,84.54-48.52,85.64-50a4.72,4.72,0,0,0,1-2.61v4.41a5.2,5.2,0,0,1-1.94,3.59C1207.33,949.68,1214.42,945.55,1123.28,998.14Z" transform="translate(-0.18 144.63)"/><polygon class="cls-50" points="1176.12 1083.6 1164.76 1090.18 1130.58 1070.44 1141.99 1063.86 1176.12 1083.6"/><polygon class="cls-50" points="1131.58 1057.85 1120.21 1064.43 1086.03 1044.69 1097.4 1038.15 1131.58 1057.85"/><path class="cls-19" d="M1126.69,967.7a10.73,10.73,0,0,1-6.25-1.27c-1.65-.95-2.36-2.13-2.13-3.65s1.75-3.12,4.59-4.78a18.81,18.81,0,0,1,8.19-2.75,11.2,11.2,0,0,1,6.25,1.23c1.75,1,2.46,2.28,2.23,3.74s-1.9,3.18-5,4.93A17.14,17.14,0,0,1,1126.69,967.7Z" transform="translate(-0.18 144.63)"/><path class="cls-51" d="M1123.28,993.79v4.4l-30.39,17.52v-4.36Z" transform="translate(-0.18 144.63)"/><path class="cls-52" d="M914.47,873.26q104.38,60.29,208.81,120.53l-30.39,17.56L884.17,890.78Z" transform="translate(-0.18 144.63)"/><path class="cls-21" d="M1120.44,966.43a10.73,10.73,0,0,0,6.25,1.27,17.14,17.14,0,0,0,7.91-2.55c3.07-1.75,4.68-3.41,5-4.93s-.48-2.74-2.23-3.74a11.2,11.2,0,0,0-6.25-1.23,18.81,18.81,0,0,0-8.19,2.75c-2.84,1.66-4.4,3.27-4.59,4.78S1118.79,965.48,1120.44,966.43Zm-6.25-6.44c2.19-3.49,7.92-6.08,12-7.06a19.24,19.24,0,0,1,14,1.57c2.08,1.19,3.68,3,3.07,5.3l11-6.39,3.79,2.17-30.82,17.8-3.5-2c6.73-3.81.27.79-6.72-3.32C1113.72,966.14,1112.12,963.2,1114.19,960Z" transform="translate(-0.18 144.63)"/><path class="cls-21" d="M1094.88,954.69l22.3-12.88,3.4,2-3.36,1.94a21,21,0,0,1,5.54-.43c2.63.31,4.79,1.5,5.82,3.93l-4.82,1.28c-1.07-2.74-5.25-3.56-8.38-2.56-3.71,1.11-4.28,1.78-16.71,8.9Z" transform="translate(-0.18 144.63)"/><polygon class="cls-50" points="1087.03 1032.14 1075.62 1038.72 1041.49 1018.98 1052.85 1012.4 1087.03 1032.14"/><path class="cls-19" d="M1085.55,945.36c-2.18-.35-7-2-7.19-4.21-.19-1.61,1.9-2.65,3.69-2.84,4.32-.46,7.53,2.68,14.39,4.35C1092.54,945,1090,946.08,1085.55,945.36Z" transform="translate(-0.18 144.63)"/><path class="cls-21" d="M1084.75,938.45c-4.7-1-9.29,2.17-4.07,5.21a14.9,14.9,0,0,0,10,1.65,21.89,21.89,0,0,0,5.77-2.65C1091.64,941.49,1087.23,938.94,1084.75,938.45ZM1073,940.58c-.19-2.9,3.43-4.61,6.34-5.11,7.75-1.29,12.57,3.47,20.08,5.49,1.16-.64,3.3-1.72,3.22-3.08-.33-2.41-5.45-4.73-7.91-5a14,14,0,0,0-5.21.85l-3.17-2.41a16.85,16.85,0,0,1,11.08-.67c3,.87,8.16,3.36,9.8,5.54,1.32,1.66,1.4,3-.43,4.69-1.91,1.56-11.56,6.59-14.77,9a6.14,6.14,0,0,0-1.75,2.08l-3.93-2.27a6.12,6.12,0,0,1,2-2c-4.12-.23-7.84-.79-11.46-2.89C1074.38,943.42,1073.1,942,1073,940.58Z" transform="translate(-0.18 144.63)"/><path class="cls-21" d="M1054.83,913.55a31.85,31.85,0,0,1,20.92-3.93c9.92,1.74,19.58,8.19,12.5,15.43l-4.92-1.75c2.74-3.08,2.65-5.89-1.8-8.47a20.5,20.5,0,0,0-15.57-1.76c-4.41,1.31-10,4.08-12.6,7.48s-.52,6.44,2.94,8.48c4.19,2.39,10.2,3.18,16.85.66l3.08,2.94c-7.75,2.69-16,2.62-23.06-1.43-3.31-1.89-5.35-3.83-6.06-5.82C1045.3,920.62,1050.42,916.11,1054.83,913.55Z" transform="translate(-0.18 144.63)"/><polygon class="cls-50" points="1042.48 1006.39 1031.07 1012.97 996.89 993.27 1008.3 986.7 1042.48 1006.39"/><path class="cls-19" d="M1206.79,936.79c1.5.89,3.39,2.78,3.12,4.4-.07,1.49-.91,3.11-3.12,4.41l-83.51,48.19Q1018.9,933.51,914.47,873.26c91-52.55,84.21-49,87.2-49.61a16.94,16.94,0,0,1,11.5,1.37Zm-76-11,34.18,19.74L1176.3,939l-34.13-19.74Zm-11.74,30c-7.57,4.42-7,9.36-2,12.26,7,4.09,13.42-.48,6.72,3.32l3.5,2,30.82-17.8-3.79-2.17-11,6.39C1144.7,954.15,1131.64,948.53,1119,955.77Zm-1.84-14-22.3,12.88,3.79,2.17c12.61-7.22,13.06-7.81,16.71-8.9,3.18-1,7.33-.14,8.38,2.56l4.82-1.28c-1-2.43-3.19-3.62-5.82-3.93a21,21,0,0,0-5.54.43l3.36-1.94Zm-31-41.75,34.18,19.74,11.36-6.58-34.18-19.7Zm-10.65,36.68c-3.58,2.11-3.83,5.16,1.27,8.1,3.61,2.09,7.36,2.66,11.46,2.89a6.12,6.12,0,0,0-2,2l3.93,2.27c.93-1.86,2.53-2.8,8.14-6.1,1.52-.85,7-3.91,8.38-5,1.83-1.73,1.75-3,.43-4.69-1.67-2.21-6.82-4.68-9.8-5.54a16.86,16.86,0,0,0-11.08.67l3.17,2.41a14,14,0,0,1,5.21-.85c2.46.24,7.58,2.56,7.91,5,.08,1.37-2.1,2.46-3.22,3.08-4.2-1.13-8.76-3.66-12-4.78C1082.22,934.64,1078.25,935.23,1075.57,936.74Zm.66-4.11-3.08-2.94c-6.64,2.52-12.65,1.74-16.85-.66-3.44-2-5.42-5.11-2.94-8.48s8.15-6.16,12.6-7.48a20.5,20.5,0,0,1,15.57,1.76c4.42,2.57,4.55,5.37,1.8,8.47l4.92,1.75c7.08-7.24-2.6-13.69-12.5-15.43a31.85,31.85,0,0,0-20.92,3.93c-4.41,2.56-9.53,7.07-7.72,11.83.71,2,2.75,3.93,6.06,5.82C1060.23,935.25,1068.48,935.32,1076.23,932.63Zm-58.7-58.56c-.67-2.23-2.85-3.31-4.78-4.41-4-2.22-5.49-3.28-11.51-6.62-2.13-1.19-4.26-2.37-6.39-3.65a28.77,28.77,0,0,0-5.21-2.79,17.93,17.93,0,0,0-8.75-.62c-4,.89-7.94,3.42-11.84,5.87C964,865,964,864.8,961.34,866.3c-3.89,2.39-3.93,5.43-1.38,7.81,1.16,1,17.75,10.25,21,12.26,3.72,2.18,5.17,3.32,9.56,3.6,8.31.52,12.92-4.61,22-9.47,1.78-.88,4.19-2.07,4.92-4.26A3.72,3.72,0,0,0,1017.53,874.07Zm13.73-5.73,11.4-6.58-34.17-19.69-11.41,6.57Zm56,19.17L1053,867.77l-11.36,6.58,34.13,19.74Z" transform="translate(-0.18 144.63)"/><path class="cls-53" d="M974.59,882.73c-11-6.36-9.63-5.66-11.5-6.68s-4.18-2.18-4.74-4.4a4.06,4.06,0,0,1,1.23-4,16.35,16.35,0,0,1,3.74-2.42c8.89-4.65,13.62-10,22-9.46,4.21.27,6.06,1.5,9.56,3.64,2.16,1.3,19.57,11,21,12.26s2.19,2.84,1.56,4.59c-.72,2.16-3.08,3.35-4.92,4.26-9,4.84-13.66,10-22,9.47C985.34,889.64,985.07,888.55,974.59,882.73Z" transform="translate(-0.18 144.63)"/><path class="cls-19" d="M880.34,901.76c-4.43-2.61-4-6.62,0-8.76l3.78-2.22c.48,0-2.24-1.3,208.77,120.57l-3.79,2.18a16.88,16.88,0,0,1-11.55,1.37C1074.44,1014.21,1087.52,1021.39,880.34,901.76Z" transform="translate(-0.18 144.63)"/><path class="cls-21" d="M877.17,901.76v-4.4a4.47,4.47,0,0,0,1,2.6c1.06,1.41-11.59-6.15,195.75,113.57a16.88,16.88,0,0,0,11.55,1.37c2.71-.6,3.71-1.41,7.43-3.55v4.36l-3.79,2.17c-3.38,2-7.8,2.23-11.55,1.42-2.93-.65,9.7,6.28-197.21-113.19C878,904.84,877.17,903.11,877.17,901.76Z" transform="translate(-0.18 144.63)"/><polygon class="cls-21" points="1233.08 296.84 1233.08 345.35 1170.48 382.12 1127.93 357.55 1233.08 296.84"/><path class="cls-16" d="M1282.92,339.65h137.63c-1,1.64-9.59,9.22-9.59,9.22l9.59,9.26H1282.92L1292,349Z" transform="translate(-0.18 144.63)"/><path class="cls-16" d="M1426.19,360l-11.53-11.11c3.32-2.92,8.45-8.36,11.53-11.07Z" transform="translate(-0.18 144.63)"/><path class="cls-54" d="M1823.44,590.5c10.37,14,7.7,29.87-7.06,38.44s-38.93,7.35-56.8-5c-9.46-6.53-14.53-14.49-16.26-21.41a22.84,22.84,0,0,1,3.3-19c4.06-5.88,11.82-11.26,23.31-13.13C1790.11,567.15,1812.64,575.94,1823.44,590.5Zm-16.63,15.13q3.24-2.62,2.9-6.1c-.17-1.8-1.26-3.76-3.27-5.86.64-.36,1.27-.73,1.9-1.1l-2.26-2-1.89,1.09a19.76,19.76,0,0,0-7.9-3.84,13.73,13.73,0,0,0-9.74,1.38c-2.92,1.69-4.47,4.31-3.37,7.52a17.48,17.48,0,0,0,2.94,5.37l-12.62,7.29a5.18,5.18,0,0,1-1.51-4.79c.24-1.25,1.28-2.61,3.11-4.11l-4.6-3a9.13,9.13,0,0,0-3.69,4.36,6.34,6.34,0,0,0,0,4.54,16.85,16.85,0,0,0,3.34,4.91l-4,2.29,2.26,2,4-2.32a18.36,18.36,0,0,0,9.5,4.11,14.63,14.63,0,0,0,9.4-1.73c2.19-1.26,3.85-3.18,3.92-5.68a8,8,0,0,0-.94-3.72,34.73,34.73,0,0,0-2.66-4.07l11.43-6.6c2.08,2.66,1.65,4.8-.86,6.88Z" transform="translate(-0.18 144.63)"/><path class="cls-55" d="M1809.71,599.53q.35,3.48-2.9,6.1l-4.57-3.15c2.51-2.08,2.94-4.22.86-6.88l-11.43,6.6a34.73,34.73,0,0,1,2.66,4.07,8,8,0,0,1,.94,3.72c-.07,2.5-1.73,4.42-3.92,5.68a14.63,14.63,0,0,1-9.4,1.73,18.36,18.36,0,0,1-9.5-4.11l-4,2.32-2.26-2,4-2.29a16.85,16.85,0,0,1-3.34-4.91,6.34,6.34,0,0,1,0-4.54,9.13,9.13,0,0,1,3.69-4.36l4.6,3c-1.83,1.5-2.87,2.86-3.11,4.11a5.18,5.18,0,0,0,1.51,4.79l12.62-7.29a17.48,17.48,0,0,1-2.94-5.37c-1.1-3.21.45-5.83,3.37-7.52a13.73,13.73,0,0,1,9.74-1.38,19.76,19.76,0,0,1,7.9,3.84l1.89-1.09,2.26,2c-.63.37-1.26.74-1.9,1.1C1808.45,595.77,1809.54,597.73,1809.71,599.53Zm-19.79.38,11-6.33c-6-4.1-12-1.53-12.5,1.78Q1788.12,597.12,1789.92,599.91Zm-.33,9.51q.27-1.67-1.77-5l-12.07,7a11.4,11.4,0,0,0,5.7,2.11,9.38,9.38,0,0,0,5.7-1.16A4.38,4.38,0,0,0,1789.59,609.42Z" transform="translate(-0.18 144.63)"/><path class="cls-54" d="M1800.89,593.58l-11,6.33q-1.8-2.79-1.53-4.55C1788.9,592.05,1794.93,589.48,1800.89,593.58Z" transform="translate(-0.18 144.63)"/><path class="cls-54" d="M1787.82,604.42q2,3.33,1.77,5a4.38,4.38,0,0,1-2.44,2.92,9.38,9.38,0,0,1-5.7,1.16,11.4,11.4,0,0,1-5.7-2.11Z" transform="translate(-0.18 144.63)"/><path class="cls-55" d="M1691.35,591.45c-.55-14.46,16.6-27.46,41.32-30.86a90.06,90.06,0,0,1,37.09,2.58,58.15,58.15,0,0,0-13.07,3,75,75,0,0,0-27.29.8c-7.93,1.74-16.54,5.19-22.36,10.88-8.89,8.7-8.07,19.5,1.82,27.67,6.33,5.23,14.93,8.28,22.94,9.74a34.08,34.08,0,0,0,1.28,3.41c.46,1.1,1.05,2.23,1.26,2.64-11-1.31-23-4.85-31.91-11.57a30.36,30.36,0,0,1-8.36-9.13A20,20,0,0,1,1691.35,591.45Z" transform="translate(-0.18 144.63)"/><path class="cls-55" d="M1738.13,579.56c5-7.24,14.49-13.69,28.33-15.94,24.11-4,51.71,6.46,65,24.39,12.63,17,9.28,36.33-8.58,46.7s-47.23,9-69-6.06c-11.5-7.94-17.65-17.61-19.76-26A27.74,27.74,0,0,1,1738.13,579.56Zm78.25,49.38c14.76-8.57,17.43-24.47,7.06-38.44-10.8-14.56-33.33-23.35-53.51-20.08-11.49,1.87-19.25,7.25-23.31,13.13a22.84,22.84,0,0,0-3.3,19c1.73,6.92,6.8,14.88,16.26,21.41C1777.45,636.29,1801.58,637.53,1816.38,628.94Z" transform="translate(-0.18 144.63)"/><path class="cls-54" d="M1733.26,591.36l-1.59,5.95a3.13,3.13,0,0,1-.75-2.88A6.4,6.4,0,0,1,1733.26,591.36Z" transform="translate(-0.18 144.63)"/><path class="cls-54" d="M1731.8,615.21c-8-1.46-16.61-4.51-22.94-9.74-9.89-8.17-10.71-19-1.82-27.67,5.82-5.69,14.43-9.14,22.36-10.88a75,75,0,0,1,27.29-.8c-10.64,3.82-19.83,11.35-22.65,22.35l-.57,2.11-4.22-1.67a9.07,9.07,0,0,0-3.65,3.93,4.13,4.13,0,0,0,.12,3.64,12.55,12.55,0,0,0,3.51,3.56l-4,2.28,2.34,1.35,3-1.74s-.08.54-.09.7a29.18,29.18,0,0,0,.7,10.54C1731.42,614,1731.72,615,1731.8,615.21Z" transform="translate(-0.18 144.63)"/><path class="cls-55" d="M1733.47,590.58l-.21.78a6.4,6.4,0,0,0-2.34,3.07,3.13,3.13,0,0,0,.75,2.88,34.18,34.18,0,0,0-1.05,4.62l-3,1.74-2.34-1.35,4-2.28a12.55,12.55,0,0,1-3.51-3.56,4.13,4.13,0,0,1-.12-3.64,9.07,9.07,0,0,1,3.65-3.93Z" transform="translate(-0.18 144.63)"/><path class="cls-54" d="M1733.47,590.58l.11,0a29.17,29.17,0,0,0,.55,12c2.11,8.4,8.26,18.07,19.76,26,21.76,15,51.11,16.45,69,6.06,8-4.65,13.09-11.08,15.13-18.28l-2.73,10.17a27.5,27.5,0,0,1-3.5,7.92c-.54.87-1.79,2.51-1.92,2.64-5.41,6.69-13.59,11-21.93,13.09-22.85,5.87-50.56-2.51-65.79-18.39a46.7,46.7,0,0,1-8.08-11.14,33.83,33.83,0,0,1-3.65-12.57,27.83,27.83,0,0,1,.12-5.52C1730.88,599.74,1731.34,598.7,1733.47,590.58Z" transform="translate(-0.18 144.63)"/><path class="cls-54" d="M1609.6,530c0,.27,0,.55,0,.82v-12.6a18.61,18.61,0,0,0,.15,2.15,21.88,21.88,0,0,0,4.89,10.8,30.74,30.74,0,0,0,2.39,2.62c4,4,10.65,8.26,19.16,11.05l1.75.57c19,5.91,44,4.91,61.52-4.28,9.21-4.77,17.8-12.79,17.8-23.07v12.76c0,8.44-5.82,15.38-12.8,20.11-7.47,5.15-19.33,9.62-34.15,10.7h0a90,90,0,0,1-31.49-3.18c-7.81-2.28-16.22-6.3-22-12C1612.34,541.92,1609.32,536.33,1609.6,530Z" transform="translate(-0.18 144.63)"/><path class="cls-55" d="M1710.35,546.05c-2.34,7-8.39,12.41-14.8,16.11-23.16,13.37-61.7,11.81-81.28-3.44,9.67,4.16,21,6.1,31.58,6.15,14,2.18,30.36.53,43.06-6.65a58.66,58.66,0,0,0,15.53-7.28,37.66,37.66,0,0,0,5.9-4.9Z" transform="translate(-0.18 144.63)"/><path class="cls-54" d="M1691.38,604.57c0-.61,0,.23,0-13.12a20,20,0,0,0,2.72,9.11,30.36,30.36,0,0,0,8.36,9.13c8.91,6.72,20.87,10.26,31.91,11.57a46.88,46.88,0,0,0,7.8,10.6c1,1.06,2,2,2.94,2.82-15.64,0-34.91-4.29-46.09-15.14C1694.84,615.59,1691.67,610.34,1691.38,604.57Z" transform="translate(-0.18 144.63)"/><path class="cls-54" d="M1645.85,564.87a87.15,87.15,0,0,0,24.41-3.22,83,83,0,0,0,18.65-3.43C1676.27,565.36,1659.89,567.06,1645.85,564.87Z" transform="translate(-0.18 144.63)"/><path class="cls-54" d="M1592.6,533c0,.25,0,.5,0,.75V521a20.51,20.51,0,0,0,4.14,12c4.87,6.77,13.13,11.48,21.07,14.36h0c5.71,5.31,13.54,8.94,21,11.12a89.49,89.49,0,0,0,31.46,3.19c-21.48,6.16-46.54,3.08-61.78-5.81-6.07-3.42-12.2-8.82-14.64-15.37A18.5,18.5,0,0,1,1592.6,533Z" transform="translate(-0.18 144.63)"/><path class="cls-54" d="M1609.58,518.05V506.78l.06,0a21.34,21.34,0,0,0,4.84,11.49c15.62,19.69,60.45,24.29,87,9a37.31,37.31,0,0,0,10.83-9,20.93,20.93,0,0,0,4.93-13v12.79c0,10.31-8.63,18.34-17.8,23.09-10.26,5.33-21.86,7.53-33.32,7.94a88,88,0,0,1-29.95-4.23c-8.24-2.7-17.71-8-22.61-15.08A20.2,20.2,0,0,1,1609.58,518.05Z" transform="translate(-0.18 144.63)"/><path class="cls-55" d="M1712.35,492.31c6.36,8,6.7,17.44,0,26a37.31,37.31,0,0,1-10.83,9c-26.55,15.27-71.38,10.67-87-9-4.89-6.16-6.45-13.45-3.17-20.77,2.77-6.15,8.17-10.79,14.07-14.18,18.08-10.38,45.29-11.78,65.86-4.61C1699.06,481.39,1707.21,485.84,1712.35,492.31ZM1703.67,516c5.51-7,5.29-14.73,0-21.38-12.81-16.16-49.67-20-71.58-7.44a30.6,30.6,0,0,0-8.95,7.4c-5.52,7-5.3,14.72,0,21.37,12.83,16.17,49.7,20,71.59,7.44A30.83,30.83,0,0,0,1703.67,516Z" transform="translate(-0.18 144.63)"/><path class="cls-54" d="M1703.69,494.6c5.27,6.65,5.49,14.4,0,21.38a30.83,30.83,0,0,1-9,7.39c-21.89,12.57-58.76,8.73-71.59-7.44-5.27-6.65-5.49-14.4,0-21.37a30.6,30.6,0,0,1,8.95-7.4C1654,474.58,1690.88,478.44,1703.69,494.6Zm-29.93,3.93,5.84-.22q-.31-3.09-3.71-5a19.33,19.33,0,0,0-7.49-2c.08-.51.15-1,.22-1.54l-3.29-.16c-.07.52-.14,1-.22,1.54a23.49,23.49,0,0,0-8.63,1.35c-3,1.29-4.69,3.08-5,5.37-.42,3,1.89,5,4.72,6.11a33.08,33.08,0,0,0,6.82,1.88c-.49,3.42-1,6.84-1.48,10.26a9.43,9.43,0,0,1-5.37-2.18,5.83,5.83,0,0,1-1.74-3.93l-5.71.34a6.07,6.07,0,0,0,1.61,4.35,10.3,10.3,0,0,0,4.17,2.74,31.75,31.75,0,0,0,6.65,1.41c-.15,1.07-.3,2.15-.46,3.22l3.29.16c.16-1.09.31-2.18.47-3.26a20.63,20.63,0,0,0,9.9-1.94c2.67-1.38,4.17-3.18,4.5-5.42a5.39,5.39,0,0,0-2.68-5.25,15.26,15.26,0,0,0-4-1.82c-.88-.26-2.69-.67-5.45-1.21.45-3.1.89-6.2,1.34-9.3a9.48,9.48,0,0,1,4.11,1.54A4.27,4.27,0,0,1,1673.76,498.53Z" transform="translate(-0.18 144.63)"/><path class="cls-55" d="M1679.6,498.31l-5.84.22a4.27,4.27,0,0,0-1.64-3A9.48,9.48,0,0,0,1668,494c-.45,3.1-.89,6.2-1.34,9.3,2.76.54,4.57,1,5.45,1.21a15.26,15.26,0,0,1,4,1.82,5.39,5.39,0,0,1,2.68,5.25c-.33,2.24-1.83,4-4.5,5.42a20.63,20.63,0,0,1-9.9,1.94c-.16,1.08-.31,2.17-.47,3.26l-3.29-.16c.16-1.07.31-2.15.46-3.22a31.75,31.75,0,0,1-6.65-1.41,10.3,10.3,0,0,1-4.17-2.74,6.07,6.07,0,0,1-1.61-4.35l5.71-.34a5.83,5.83,0,0,0,1.74,3.93,9.43,9.43,0,0,0,5.37,2.18c.49-3.42,1-6.84,1.48-10.26a33.08,33.08,0,0,1-6.82-1.88c-2.83-1.1-5.14-3.13-4.72-6.11.33-2.29,2-4.08,5-5.37a23.49,23.49,0,0,1,8.63-1.35c.08-.51.15-1,.22-1.54l3.29.16c-.07.51-.14,1-.22,1.54a19.33,19.33,0,0,1,7.49,2Q1679.28,495.22,1679.6,498.31Zm-6.55,13.19a3,3,0,0,0-1.1-2.89q-1.35-1.14-5.73-2.19l-1.41,9.81a12,12,0,0,0,5.62-1.37A4.6,4.6,0,0,0,1673.05,511.5Zm-9.61-8.79,1.29-8.92a12.06,12.06,0,0,0-5.36,1.26,3.9,3.9,0,0,0-2.28,2.79C1656.65,500.86,1660.46,502,1663.44,502.71Z" transform="translate(-0.18 144.63)"/><path class="cls-54" d="M1672,508.61a3,3,0,0,1,1.1,2.89,4.6,4.6,0,0,1-2.62,3.36,12,12,0,0,1-5.62,1.37l1.41-9.81Q1670.6,507.47,1672,508.61Z" transform="translate(-0.18 144.63)"/><path class="cls-54" d="M1664.73,493.79l-1.29,8.92c-3-.68-6.79-1.85-6.35-4.87a3.9,3.9,0,0,1,2.28-2.79A12.06,12.06,0,0,1,1664.73,493.79Z" transform="translate(-0.18 144.63)"/><path class="cls-55" d="M1617.79,547.33c-7.94-2.88-16.2-7.59-21.07-14.36-6.14-8.54-5.57-18.43,2.56-27a42.41,42.41,0,0,1,12-8.55,18.93,18.93,0,0,0-1.73,7.81v1.52c-10.26,8.86-9.89,20.43.7,29.05a24,24,0,0,0,5.66,9.65C1616.6,546.22,1617.74,547.29,1617.79,547.33Z" transform="translate(-0.18 144.63)"/><path class="cls-54" d="M1609.68,532.71a19.38,19.38,0,0,0,.6,3.12c-10.59-8.62-11-20.19-.7-29.05C1609.58,532.23,1609.54,531.69,1609.68,532.71Z" transform="translate(-0.18 144.63)"/><path class="cls-54" d="M1603.89,552.85a50.64,50.64,0,0,0,9.24,5.37c1.09.51,1.1.46,1.14.5,19.58,15.25,58.12,16.81,81.28,3.44,6.41-3.7,12.46-9.12,14.8-16.11h0c.26-.25.81-.85,1-1v7.92c0-.21,0-.42,0-.63a18.79,18.79,0,0,1-2,9.05,24.69,24.69,0,0,1-3.63,5.42,32.86,32.86,0,0,1-2.49,2.58c-22.42,21-75.34,18.84-93.83-2.43-3.49-4-5.79-8.83-5.73-14.15v-.1Z" transform="translate(-0.18 144.63)"/><path class="cls-54" d="M799.85,803.1V791.84l.06-.05a21.2,21.2,0,0,0,4.84,11.48c15.61,19.69,60.45,24.3,87,9a37.26,37.26,0,0,0,10.84-9,20.9,20.9,0,0,0,4.93-13V803.1c0,10.32-8.63,18.34-17.8,23.1-10.27,5.33-21.86,7.53-33.32,7.94a88.13,88.13,0,0,1-30-4.23c-8.24-2.71-17.7-8-22.6-15.08A20.18,20.18,0,0,1,799.85,803.1Z" transform="translate(-0.18 144.63)"/><path class="cls-55" d="M902.62,777.37c6.36,8,6.7,17.44,0,26a37.26,37.26,0,0,1-10.84,9c-26.54,15.27-71.38,10.66-87-9-4.89-6.16-6.45-13.45-3.17-20.76,2.77-6.16,8.17-10.8,14.07-14.18,18.08-10.38,45.29-11.79,65.86-4.61C889.33,766.45,897.48,770.9,902.62,777.37ZM893.93,801c5.52-7,5.3-14.73,0-21.38-12.81-16.16-49.67-20-71.59-7.44a30.83,30.83,0,0,0-9,7.39c-5.51,7-5.29,14.73,0,21.38,12.83,16.17,49.69,20,71.59,7.44A30.81,30.81,0,0,0,893.93,801Z" transform="translate(-0.18 144.63)"/><path class="cls-54" d="M894,779.66c5.27,6.65,5.49,14.4,0,21.38a30.81,30.81,0,0,1-8.94,7.39c-21.9,12.57-58.76,8.73-71.59-7.44-5.27-6.65-5.49-14.4,0-21.38a30.83,30.83,0,0,1,9-7.39C844.29,759.64,881.15,763.5,894,779.66ZM864,783.59l5.84-.22c-.21-2.07-1.45-3.74-3.71-5a19.34,19.34,0,0,0-7.49-2c.07-.51.15-1,.22-1.54l-3.29-.16c-.07.51-.15,1-.22,1.54a23.45,23.45,0,0,0-8.63,1.35q-4.53,1.93-5,5.37c-.43,3,1.89,5,4.72,6.11a33.08,33.08,0,0,0,6.82,1.88q-.75,5.13-1.48,10.26a9.34,9.34,0,0,1-5.37-2.19,5.83,5.83,0,0,1-1.75-3.92l-5.7.34a6.07,6.07,0,0,0,1.61,4.35,10.05,10.05,0,0,0,4.17,2.73,31.05,31.05,0,0,0,6.65,1.42c-.15,1.07-.31,2.14-.46,3.22l3.28.16.48-3.26a20.51,20.51,0,0,0,9.9-2c2.67-1.37,4.17-3.18,4.49-5.41s-.84-4-2.68-5.25a14.86,14.86,0,0,0-4-1.82c-.88-.27-2.69-.67-5.45-1.21.45-3.1.89-6.2,1.34-9.3a9.36,9.36,0,0,1,4.1,1.54A4.25,4.25,0,0,1,864,783.59Z" transform="translate(-0.18 144.63)"/><path class="cls-55" d="M869.87,783.37l-5.84.22a4.25,4.25,0,0,0-1.65-3,9.36,9.36,0,0,0-4.1-1.54c-.45,3.1-.89,6.2-1.34,9.3,2.76.54,4.57.94,5.45,1.21a14.86,14.86,0,0,1,4,1.82c1.84,1.26,3,3.06,2.68,5.25s-1.82,4-4.49,5.41a20.51,20.51,0,0,1-9.9,2l-.48,3.26-3.28-.16c.15-1.08.31-2.15.46-3.22a31.05,31.05,0,0,1-6.65-1.42,10.05,10.05,0,0,1-4.17-2.73,6.07,6.07,0,0,1-1.61-4.35l5.7-.34a5.83,5.83,0,0,0,1.75,3.92,9.34,9.34,0,0,0,5.37,2.19q.74-5.13,1.48-10.26a33.08,33.08,0,0,1-6.82-1.88c-2.83-1.1-5.15-3.13-4.72-6.11q.49-3.43,5-5.37a23.45,23.45,0,0,1,8.63-1.35c.07-.51.15-1,.22-1.54l3.29.16c-.07.51-.15,1-.22,1.54a19.34,19.34,0,0,1,7.49,2C868.42,779.63,869.66,781.3,869.87,783.37Zm-6.55,13.19a3,3,0,0,0-1.1-2.89q-1.35-1.14-5.73-2.2l-1.41,9.82a12,12,0,0,0,5.62-1.37A4.64,4.64,0,0,0,863.32,796.56Zm-9.61-8.79q.64-4.47,1.28-8.92a11.92,11.92,0,0,0-5.35,1.26,3.92,3.92,0,0,0-2.29,2.79C846.92,785.92,850.73,787.09,853.71,787.77Z" transform="translate(-0.18 144.63)"/><path class="cls-54" d="M862.22,793.67a3,3,0,0,1,1.1,2.89,4.64,4.64,0,0,1-2.62,3.36,12,12,0,0,1-5.62,1.37l1.41-9.82Q860.87,792.53,862.22,793.67Z" transform="translate(-0.18 144.63)"/><path class="cls-54" d="M855,778.85q-.63,4.46-1.28,8.92c-3-.68-6.79-1.85-6.36-4.87a3.92,3.92,0,0,1,2.29-2.79A11.92,11.92,0,0,1,855,778.85Z" transform="translate(-0.18 144.63)"/><path class="cls-54" d="M1339.82,1030.91c10.36,14,7.69,29.87-7.06,38.44s-38.93,7.35-56.8-5c-9.47-6.53-14.53-14.49-16.27-21.41a22.87,22.87,0,0,1,3.3-19c4.07-5.88,11.82-11.26,23.32-13.13C1306.49,1007.56,1329,1016.35,1339.82,1030.91ZM1323.19,1046q3.22-2.62,2.9-6.1c-.18-1.8-1.27-3.76-3.27-5.86l1.89-1.09-2.25-2-1.9,1.09a19.7,19.7,0,0,0-7.9-3.84,13.7,13.7,0,0,0-9.73,1.38c-2.93,1.69-4.47,4.32-3.38,7.52a17.7,17.7,0,0,0,2.94,5.37l-12.61,7.29a5.19,5.19,0,0,1-1.52-4.79c.25-1.25,1.29-2.61,3.12-4.1l-4.6-3a9.1,9.1,0,0,0-3.7,4.36,6.39,6.39,0,0,0,0,4.54,17.06,17.06,0,0,0,3.34,4.91l-4,2.29,2.26,2,4-2.32a18.33,18.33,0,0,0,9.5,4.11,14.71,14.71,0,0,0,9.4-1.72c2.18-1.27,3.84-3.19,3.92-5.69a8,8,0,0,0-1-3.72,34.19,34.19,0,0,0-2.65-4.07l11.42-6.6c2.08,2.66,1.65,4.8-.86,6.88Z" transform="translate(-0.18 144.63)"/><path class="cls-55" d="M1326.09,1039.94q.33,3.48-2.9,6.1l-4.58-3.15c2.51-2.08,2.94-4.22.86-6.88l-11.42,6.6a34.19,34.19,0,0,1,2.65,4.07,8,8,0,0,1,1,3.72c-.08,2.5-1.74,4.42-3.92,5.69a14.71,14.71,0,0,1-9.4,1.72,18.33,18.33,0,0,1-9.5-4.11l-4,2.32-2.26-2,4-2.29a17.06,17.06,0,0,1-3.34-4.91,6.39,6.39,0,0,1,0-4.54,9.1,9.1,0,0,1,3.7-4.36l4.6,3c-1.83,1.49-2.87,2.85-3.12,4.1a5.19,5.19,0,0,0,1.52,4.79l12.61-7.29a17.7,17.7,0,0,1-2.94-5.37c-1.09-3.2.45-5.83,3.38-7.52a13.7,13.7,0,0,1,9.73-1.38,19.7,19.7,0,0,1,7.9,3.84l1.9-1.09,2.25,2-1.89,1.09C1324.82,1036.18,1325.91,1038.14,1326.09,1039.94Zm-19.79.38,11-6.33c-6-4.1-12-1.53-12.49,1.78Q1304.5,1037.53,1306.3,1040.32Zm-.34,9.51q.29-1.66-1.77-5l-12.06,7a11.37,11.37,0,0,0,5.69,2.11,9.41,9.41,0,0,0,5.71-1.16A4.34,4.34,0,0,0,1306,1049.83Z" transform="translate(-0.18 144.63)"/><path class="cls-54" d="M1317.26,1034l-11,6.33q-1.8-2.79-1.53-4.55C1305.28,1032.46,1311.3,1029.89,1317.26,1034Z" transform="translate(-0.18 144.63)"/><path class="cls-54" d="M1304.19,1044.83q2.05,3.33,1.77,5a4.34,4.34,0,0,1-2.43,2.92,9.41,9.41,0,0,1-5.71,1.16,11.37,11.37,0,0,1-5.69-2.11Z" transform="translate(-0.18 144.63)"/><path class="cls-55" d="M1207.73,1031.86c-.56-14.46,16.6-27.46,41.32-30.86a90,90,0,0,1,37.08,2.58,58.15,58.15,0,0,0-13.07,2.95,75,75,0,0,0-27.29.8c-7.93,1.74-16.53,5.19-22.36,10.89-8.88,8.69-8.07,19.49,1.82,27.66,6.33,5.23,14.94,8.28,22.94,9.74a35.69,35.69,0,0,0,1.28,3.41c.46,1.1,1.06,2.23,1.26,2.64-11-1.31-23-4.85-31.91-11.57a30.49,30.49,0,0,1-8.36-9.13A20,20,0,0,1,1207.73,1031.86Z" transform="translate(-0.18 144.63)"/><path class="cls-55" d="M1254.51,1020c5-7.23,14.48-13.69,28.32-15.94,24.12-4,51.71,6.46,65,24.39,12.64,17,9.28,36.33-8.57,46.7s-47.24,9-69-6.06c-11.5-7.94-17.65-17.61-19.76-26A27.78,27.78,0,0,1,1254.51,1020Zm78.25,49.38c14.75-8.57,17.42-24.47,7.06-38.44-10.8-14.56-33.33-23.35-53.51-20.08-11.5,1.87-19.25,7.25-23.32,13.13a22.87,22.87,0,0,0-3.3,19c1.74,6.92,6.8,14.88,16.27,21.41C1293.83,1076.7,1318,1077.94,1332.76,1069.35Z" transform="translate(-0.18 144.63)"/><path class="cls-54" d="M1249.64,1031.77q-.8,3-1.6,6a3.12,3.12,0,0,1-.74-2.88A6.34,6.34,0,0,1,1249.64,1031.77Z" transform="translate(-0.18 144.63)"/><path class="cls-54" d="M1248.17,1055.62c-8-1.46-16.61-4.51-22.94-9.74-9.89-8.17-10.7-19-1.82-27.66,5.83-5.7,14.43-9.15,22.36-10.89a75,75,0,0,1,27.29-.8c-10.64,3.82-19.83,11.35-22.65,22.35-.19.7-.38,1.41-.56,2.11l-4.23-1.67a9,9,0,0,0-3.64,3.93,4.13,4.13,0,0,0,.12,3.64,12.49,12.49,0,0,0,3.5,3.56l-4,2.28,2.34,1.35,3-1.74s-.07.54-.09.7a29.18,29.18,0,0,0,.7,10.54C1247.79,1054.38,1248.09,1055.37,1248.17,1055.62Z" transform="translate(-0.18 144.63)"/><path class="cls-55" d="M1249.85,1031l-.21.78a6.34,6.34,0,0,0-2.34,3.07,3.12,3.12,0,0,0,.74,2.88,35.77,35.77,0,0,0-1,4.62l-3,1.74-2.34-1.35,4-2.28a12.49,12.49,0,0,1-3.5-3.56,4.13,4.13,0,0,1-.12-3.64,9,9,0,0,1,3.64-3.93Z" transform="translate(-0.18 144.63)"/><path class="cls-54" d="M1249.85,1031l.11,0a29,29,0,0,0,.54,12c2.11,8.4,8.26,18.07,19.76,26,21.76,15,51.12,16.45,69,6.06,8-4.65,13.08-11.08,15.13-18.28q-1.38,5.09-2.73,10.17a28,28,0,0,1-3.51,7.92,27.24,27.24,0,0,1-1.92,2.64c-5.41,6.69-13.59,11-21.92,13.1-22.86,5.86-50.56-2.52-65.79-18.4a46.47,46.47,0,0,1-8.09-11.14,33.63,33.63,0,0,1-3.64-12.57,27.87,27.87,0,0,1,.11-5.52C1247.25,1040.15,1247.72,1039.11,1249.85,1031Z" transform="translate(-0.18 144.63)"/><path class="cls-54" d="M1207.76,1045c0-.61,0,.23,0-13.12a20,20,0,0,0,2.71,9.11,30.49,30.49,0,0,0,8.36,9.13c8.92,6.72,20.87,10.26,31.91,11.57a46.61,46.61,0,0,0,7.81,10.6c1,1.06,2,2,2.94,2.82-15.65,0-34.92-4.29-46.1-15.14C1211.21,1056,1208.05,1050.75,1207.76,1045Z" transform="translate(-0.18 144.63)"/></g></g></svg>