<svg id="Capa_1" data-name="Capa 1" xmlns="http://www.w3.org/2000/svg" xmlns:xlink="http://www.w3.org/1999/xlink" viewBox="0 0 450 451.61"><defs><style>.cls-1{fill:#1e0f3f;}.cls-2{font-size:37.03px;font-family:Rousseau Deco;}.cls-2,.cls-4{fill:#fff;}.cls-3{fill:#f83797;}.cls-4{font-size:18.06px;font-family:Caviar Dreams;letter-spacing:6px;}.cls-5{letter-spacing:5px;}.cls-6,.cls-7,.cls-8,.cls-9{fill:none;}.cls-6,.cls-7,.cls-9{stroke-linecap:round;stroke-miterlimit:10;}.cls-6,.cls-9{stroke-width:2px;}.cls-6{stroke:url(#Degradado_sin_nombre_37);}.cls-7{stroke-width:1.5px;stroke:url(#Degradado_sin_nombre_37-2);}.cls-9{stroke:url(#Degradado_sin_nombre_37-3);}.cls-10{fill:url(#Degradado_sin_nombre_37-4);}.cls-11{fill:url(#Degradado_sin_nombre_37-5);}</style><linearGradient id="Degradado_sin_nombre_37" x1="218.25" y1="235.72" x2="218.25" y2="100.59" gradientUnits="userSpaceOnUse"><stop offset="0.29" stop-color="#00c0ff"/><stop offset="0.8" stop-color="#00d9ff"/></linearGradient><linearGradient id="Degradado_sin_nombre_37-2" x1="190.68" y1="256.25" x2="190.68" y2="188.83" xlink:href="#Degradado_sin_nombre_37"/><linearGradient id="Degradado_sin_nombre_37-3" x1="191.38" y1="199.29" x2="191.38" y2="171.59" xlink:href="#Degradado_sin_nombre_37"/><linearGradient id="Degradado_sin_nombre_37-4" x1="148.2" y1="199.29" x2="148.2" y2="171.59" gradientTransform="translate(283.22 -9.2) rotate(69.83)" xlink:href="#Degradado_sin_nombre_37"/><linearGradient id="Degradado_sin_nombre_37-5" x1="234.56" y1="199.29" x2="234.56" y2="171.59" gradientTransform="translate(82.76 -68.72) rotate(20.17)" xlink:href="#Degradado_sin_nombre_37"/></defs><title>imgItem</title><rect class="cls-1" width="450" height="451.61"/><text class="cls-2" transform="translate(123.3 309.07)">ONLINE <tspan class="cls-3" x="118.76" y="0">SHOP</tspan></text><text class="cls-4" transform="translate(146.65 330.28)">ME<tspan class="cls-5" x="36.82" y="0">A</tspan><tspan class="cls-5" x="53.71" y="0">T</tspan><tspan class="cls-5" x="67.68" y="0">-</tspan><tspan x="80.59" y="0">S</tspan><tspan class="cls-5" x="95.92" y="0">T</tspan><tspan x="110.24" y="0">ORE</tspan></text><path class="cls-6" d="M309,126.36H127.49m160.67-12.58a3.1,3.1,0,1,0,3.1-3.1A3.1,3.1,0,0,0,288.17,113.78Zm-14.46,0a3.1,3.1,0,1,0,3.1-3.1A3.1,3.1,0,0,0,273.71,113.78Zm-14.46,0a3.1,3.1,0,1,0,3.1-3.1A3.1,3.1,0,0,0,259.25,113.78ZM127.49,182.35v-70.7a10.06,10.06,0,0,1,10.06-10.06H298.95A10.06,10.06,0,0,1,309,111.65v113a10.06,10.06,0,0,1-10.06,10.06H248.5" transform="translate(-0.44 0.8)"/><path class="cls-7" d="M127.56,189.58H253.8a2.61,2.61,0,0,1,2.61,2.61v13.67a2.61,2.61,0,0,1-2.61,2.61H127.56a2.61,2.61,0,0,1-2.61-2.61V192.19A2.61,2.61,0,0,1,127.56,189.58Zm6.64,18.8,8.73,43.25a4.81,4.81,0,0,0,4.72,3.86h86.06a4.81,4.81,0,0,0,4.72-3.86l8.71-43.17m-28.21,35.41h0a3.61,3.61,0,0,0,3.61-3.61v-20.9a3.61,3.61,0,0,0-3.61-3.61h0a3.61,3.61,0,0,0-3.61,3.61v20.9A3.61,3.61,0,0,0,218.92,243.88Zm-20.45,0h3.23a2,2,0,0,0,2-2V217.76a2,2,0,0,0-2-2h-3.23a2,2,0,0,0-2,2v24.12A2,2,0,0,0,198.47,243.88Zm-17.22,0h0a3.61,3.61,0,0,0,3.61-3.61v-20.9a3.61,3.61,0,0,0-3.61-3.61h0a3.61,3.61,0,0,0-3.61,3.61v20.9A3.61,3.61,0,0,0,181.25,243.88Zm-18.84,0h0a3.61,3.61,0,0,0,3.61-3.61v-20.9a3.61,3.61,0,0,0-3.61-3.61h0a3.61,3.61,0,0,0-3.61,3.61v20.9A3.61,3.61,0,0,0,162.42,243.88Z" transform="translate(-0.44 0.8)"/><path class="cls-3" d="M323.36,184.14l-17.24,8.46a4.36,4.36,0,0,0-.68.4L275,164.13a4.53,4.53,0,0,1,4.82-1.41l42.77,12.87A4.61,4.61,0,0,1,323.36,184.14Z" transform="translate(-0.44 0.8)"/><path class="cls-3" d="M278.52,162.52a4.68,4.68,0,0,1,1.35.2l42.79,12.87a4.61,4.61,0,0,1,.7,8.56l-17.24,8.46a4.61,4.61,0,0,0-2.11,2.11L295.55,212a4.61,4.61,0,0,1-8.56-.7l-12.87-42.79a4.62,4.62,0,0,1,4.39-5.95m0-2h0a6.64,6.64,0,0,0-5.29,2.68,6.54,6.54,0,0,0-1,5.84l12.87,42.79a6.61,6.61,0,0,0,12.27,1l8.46-17.24A2.63,2.63,0,0,1,307,194.4l17.24-8.46a6.61,6.61,0,0,0-1-12.27L280.44,160.8a6.69,6.69,0,0,0-1.93-.29h0Z" transform="translate(-0.44 0.8)"/><polyline class="cls-8" points="264.99 155.79 274.61 164.93 305 193.81 308.57 197.21 321.89 197.21"/><path class="cls-9" d="M148.2,198.29l8.44-23a4.17,4.17,0,0,1,3.91-2.73h61.66a4.17,4.17,0,0,1,3.91,2.73l8.44,23" transform="translate(-0.44 0.8)"/><circle class="cls-10" cx="148.2" cy="198.29" r="2.26" transform="translate(-89.47 269.83) rotate(-69.83)"/><circle class="cls-11" cx="234.56" cy="198.29" r="2.26" transform="translate(-54.43 93.84) rotate(-20.17)"/></svg>