<svg id="Capa_1" data-name="Capa 1" xmlns="http://www.w3.org/2000/svg" viewBox="0 0 400 400"><defs><style>.cls-1{fill:#4df5fd;}.cls-2{fill:#83a84d;}.cls-3{fill:#1e0f3f;}</style></defs><title>logoPin8</title><path class="cls-1" d="M37.63,0H362.37A37.63,37.63,0,0,1,400,37.63V200A200,200,0,0,1,200,400h0A200,200,0,0,1,0,200V37.63A37.63,37.63,0,0,1,37.63,0Z"/><path class="cls-2" d="M159.69,386.83a11,11,0,0,0-1.06-1.3c-8.62-7.86-15.75-17-22.16-26.66a43.4,43.4,0,0,1-7-18.47c-0.89-6.85-2.13-13.67-2.87-20.54-0.57-5.37-1.13-10.78-.34-16.21a24.14,24.14,0,0,1,1.62-5.93,2.35,2.35,0,0,1,2.85-1.6c4.72,0.66,9.57.77,14.16,1.94,8.88,2.26,17.57,5.12,25.12,10.68,4.44,3.26,9,6.36,13.38,9.71a66.77,66.77,0,0,1,15.16,16.76c5.12,7.83,10,15.82,14.35,24.08,5.18,9.79,8.48,20.14,8.77,31.31,0,0.65,0,1.31,0,2A3.4,3.4,0,0,1,219,396a10.45,10.45,0,0,1-1.35.36c-6.86.89-13.58,2.77-20.51,3.09-9.17.43-18.12-.42-26.34-5.09a46,46,0,0,1-4.43-2.95,9.76,9.76,0,0,0-3.1-1.87Z" transform="translate(-24.71 -24.74)"/><path class="cls-2" d="M321.66,307.44a7.19,7.19,0,0,1,4.28.59c1.75,1.06,2.3,3.32,2.5,5.35,3,29.54-13.19,49.52-37,62.47-9.88,5.37-20.48,7.19-31.6,7.1-3.57,0-21.18,2.89-23.23,1.12-1.46-1.27-1.22-3.56-.8-5.45C246.71,329.71,273,311.09,321.66,307.44Z" transform="translate(-24.71 -24.74)"/><path class="cls-2" d="M196.69,259.36c5.13,1.84,9.65,5.07,13.76,8.64,8.4,7.28,15.52,16.32,19.23,26.8,4.62,13,4.79,28.66,1.52,42C200.27,329.06,186.52,287.3,196.69,259.36Z" transform="translate(-24.71 -24.74)"/><path class="cls-3" d="M86.89,237.49V155.43h18.26v82.05H86.89Z" transform="translate(-24.71 -24.74)"/><path class="cls-3" d="M187,170.2H162.16v67.29H143.85V170.2H119.39V155.43H187V170.2Z" transform="translate(-24.71 -24.74)"/><path class="cls-3" d="M218.44,170.2v18h31.78v14.26H218.44v20.29h37.42v14.71H200.13V155.43h55.73V170.2H218.44Z" transform="translate(-24.71 -24.74)"/><path class="cls-3" d="M356.32,237.49H338V217.31l1.8-39.73-21.08,59.9H306.45l-21.08-59.9,1.8,39.73v20.17H268.92V155.43h24l19.72,57.82,19.72-57.82h24v82.05Z" transform="translate(-24.71 -24.74)"/><path class="cls-3" d="M153.87,137.62l-31.05-52v52H104.5V55.57h18.31l31.05,52v-52h18.26v82.05H153.87Z" transform="translate(-24.71 -24.74)"/><path class="cls-3" d="M205.29,70.33v18h31.78v14.26H205.29v20.29h37.42v14.71H187V55.57h55.73V70.33H205.29Z" transform="translate(-24.71 -24.74)"/><path class="cls-3" d="M345,55.57l-17.81,82.05H308.56l-12.23-51.9-12.12,51.9H265.56L247.7,55.57h18.15l10.31,56,12.45-56h15.5l12.51,56,10.31-56H345Z" transform="translate(-24.71 -24.74)"/></svg>